<svg id="eZHNALxGjf61" xmlns="http://www.w3.org/2000/svg" xmlns:xlink="http://www.w3.org/1999/xlink" viewBox="0 0 730 365" shape-rendering="geometricPrecision" text-rendering="geometricPrecision">
<style><![CDATA[
#eZHNALxGjf66_to {animation: eZHNALxGjf66_to__to 10000ms linear infinite normal forwards}@keyframes eZHNALxGjf66_to__to { 0% {transform: translate(365px,182.5px)} 25% {transform: translate(391.994543px,238.372055px)} 50% {transform: translate(359.1px,190.18129px)} 75% {transform: translate(297.055783px,224.919348px)} 100% {transform: translate(365px,182.5px)}} #eZHNALxGjf66_ts {animation: eZHNALxGjf66_ts__ts 10000ms linear infinite normal forwards}@keyframes eZHNALxGjf66_ts__ts { 0% {transform: scale(1,1)} 50% {transform: scale(1,1)} 100% {transform: scale(1,1)}} #eZHNALxGjf611_to {animation: eZHNALxGjf611_to__to 10000ms linear infinite normal forwards}@keyframes eZHNALxGjf611_to__to { 0% {transform: translate(500.262848px,254.99205px)} 45% {transform: translate(493.22145px,259.746391px)} 100% {transform: translate(500.262848px,254.99205px)}} #eZHNALxGjf611_tr {animation: eZHNALxGjf611_tr__tr 10000ms linear infinite normal forwards}@keyframes eZHNALxGjf611_tr__tr { 0% {transform: rotate(0deg)} 50% {transform: rotate(-10deg)} 100% {transform: rotate(0deg)}} #eZHNALxGjf617_tr {animation: eZHNALxGjf617_tr__tr 10000ms linear infinite normal forwards}@keyframes eZHNALxGjf617_tr__tr { 0% {transform: translate(124.996601px,277.294678px) rotate(0deg)} 50% {transform: translate(124.996601px,277.294678px) rotate(-45deg)} 100% {transform: translate(124.996601px,277.294678px) rotate(0deg)}} #eZHNALxGjf617_ts {animation: eZHNALxGjf617_ts__ts 10000ms linear infinite normal forwards}@keyframes eZHNALxGjf617_ts__ts { 0% {transform: scale(1,1)} 50% {transform: scale(1.15,1.15)} 100% {transform: scale(1,1)}} #eZHNALxGjf620_to {animation: eZHNALxGjf620_to__to 10000ms linear infinite normal forwards}@keyframes eZHNALxGjf620_to__to { 0% {transform: translate(389.995243px,271.434601px)} 25% {transform: translate(392.167061px,293.6928px)} 75% {transform: translate(394.217073px,281.607063px)} 100% {transform: translate(389.995243px,271.434601px)}} #eZHNALxGjf620_ts {animation: eZHNALxGjf620_ts__ts 10000ms linear infinite normal forwards}@keyframes eZHNALxGjf620_ts__ts { 0% {transform: scale(1,1)} 50% {transform: scale(1,1)} 100% {transform: scale(1,1)}} #eZHNALxGjf621_to {animation: eZHNALxGjf621_to__to 10000ms linear infinite normal forwards}@keyframes eZHNALxGjf621_to__to { 0% {transform: translate(399.043873px,283.958237px)} 25% {transform: translate(432.023739px,283.958237px)} 65% {transform: translate(341.863159px,281.830204px)} 100% {transform: translate(432.023739px,283.958237px)}} #eZHNALxGjf621_ts {animation: eZHNALxGjf621_ts__ts 10000ms linear infinite normal forwards}@keyframes eZHNALxGjf621_ts__ts { 0% {transform: scale(-1,1)} 45% {transform: scale(-1,1)} 100% {transform: scale(-1,1)}} #eZHNALxGjf623_to {animation: eZHNALxGjf623_to__to 10000ms linear infinite normal forwards}@keyframes eZHNALxGjf623_to__to { 0% {transform: translate(589.399954px,153.200005px)} 25% {transform: translate(589.399954px,153.200005px)} 31% {transform: translate(589.399954px,153.200005px)} 100% {transform: translate(589.399954px,153.200005px)}} #eZHNALxGjf623 {animation: eZHNALxGjf623_c_o 10000ms linear infinite normal forwards}@keyframes eZHNALxGjf623_c_o { 0% {opacity: 0} 25% {opacity: 0} 31% {opacity: 0.3} 97% {opacity: 0.3} 100% {opacity: 0}} #eZHNALxGjf629 {animation: eZHNALxGjf629_c_o 10000ms linear infinite normal forwards}@keyframes eZHNALxGjf629_c_o { 0% {opacity: 0} 50% {opacity: 0} 55% {opacity: 0.3} 97% {opacity: 0.3} 100% {opacity: 0}} #eZHNALxGjf635 {animation: eZHNALxGjf635_c_o 10000ms linear infinite normal forwards}@keyframes eZHNALxGjf635_c_o { 0% {opacity: 0} 75% {opacity: 0} 80% {opacity: 0.3} 97% {opacity: 0.3} 100% {opacity: 0}} #eZHNALxGjf641_to {animation: eZHNALxGjf641_to__to 10000ms linear infinite normal forwards}@keyframes eZHNALxGjf641_to__to { 0% {transform: translate(828.299927px,153.200005px)} 25% {transform: translate(589.399954px,153.200005px)} 50% {transform: translate(371.678287px,153.200005px)} 75% {transform: translate(132.799951px,153.200005px)} 100% {transform: translate(-100px,153.200005px)}} #eZHNALxGjf643_tr {animation: eZHNALxGjf643_tr__tr 10000ms linear infinite normal forwards}@keyframes eZHNALxGjf643_tr__tr { 0% {transform: translate(380.5px,159.871176px) rotate(33.414893deg)} 12% {transform: translate(380.5px,159.871176px) rotate(33.414893deg)} 25% {transform: translate(380.5px,159.871176px) rotate(0.236832deg)} 31% {transform: translate(380.5px,159.871176px) rotate(0.236832deg)} 40% {transform: translate(380.5px,159.871176px) rotate(25.377313deg)} 45% {transform: translate(380.5px,159.871176px) rotate(48.128392deg)} 50% {transform: translate(380.5px,159.871176px) rotate(0.236832deg)} 55% {transform: translate(380.5px,159.871176px) rotate(0.236832deg)} 59% {transform: translate(380.5px,159.871176px) rotate(27.283523deg)} 64% {transform: translate(380.5px,159.871176px) rotate(43.525866deg)} 74% {transform: translate(380.5px,159.871176px) rotate(0.236832deg)} 80% {transform: translate(380.5px,159.871176px) rotate(0.236832deg)} 85% {transform: translate(380.5px,159.871176px) rotate(25.504474deg)} 89% {transform: translate(380.5px,159.871176px) rotate(40.806888deg)} 100% {transform: translate(380.5px,159.871176px) rotate(0.236832deg)}} #eZHNALxGjf646_tr {animation: eZHNALxGjf646_tr__tr 10000ms linear infinite normal forwards}@keyframes eZHNALxGjf646_tr__tr { 0% {transform: translate(368.973924px,159.831579px) rotate(-23.254654deg)} 12% {transform: translate(368.973924px,159.831579px) rotate(-23.254654deg)} 25% {transform: translate(368.973924px,159.831579px) rotate(0.234433deg)} 31% {transform: translate(368.973924px,159.831579px) rotate(0.234433deg)} 40% {transform: translate(368.973924px,159.831579px) rotate(-15.619138deg)} 45% {transform: translate(368.973924px,159.831579px) rotate(-22.973949deg)} 50% {transform: translate(368.973924px,159.831579px) rotate(0.234433deg)} 55% {transform: translate(368.973924px,159.831579px) rotate(0.234433deg)} 59% {transform: translate(368.973924px,159.831579px) rotate(-14.524844deg)} 64% {transform: translate(368.973924px,159.831579px) rotate(-23.380648deg)} 74% {transform: translate(368.973924px,159.831579px) rotate(0.234433deg)} 80% {transform: translate(368.973924px,159.831579px) rotate(0.234433deg)} 85% {transform: translate(368.973924px,159.831579px) rotate(-14.004552deg)} 89% {transform: translate(368.973924px,159.831579px) rotate(-26.676321deg)} 100% {transform: translate(368.973924px,159.831579px) rotate(0.234433deg)}} #eZHNALxGjf649_to {animation: eZHNALxGjf649_to__to 10000ms linear infinite normal forwards}@keyframes eZHNALxGjf649_to__to { 0% {transform: translate(373.049995px,48.200001px)} 25% {transform: translate(334.733957px,-12.825994px)} 50% {transform: translate(372.657961px,1.3px)} 75% {transform: translate(331.891324px,-2px)} 100% {transform: translate(373.049995px,48.200001px)}} #eZHNALxGjf649 {animation: eZHNALxGjf649_c_o 10000ms linear infinite normal forwards}@keyframes eZHNALxGjf649_c_o { 0% {opacity: 0.78} 5% {opacity: 0.28} 50% {opacity: 1} 95% {opacity: 0.78} 100% {opacity: 0}} #eZHNALxGjf6152_to {animation: eZHNALxGjf6152_to__to 10000ms linear infinite normal forwards}@keyframes eZHNALxGjf6152_to__to { 0% {transform: translate(464.661009px,27.385545px)} 25% {transform: translate(464.661009px,27.385545px)} 30% {transform: translate(446.055874px,27.385545px)} 35% {transform: translate(413.22426px,25.361573px)} 40% {transform: translate(413.22426px,25.361573px)} 50% {transform: translate(266.564547px,21.504995px)} 55% {transform: translate(253.701066px,26.792168px)} 60% {transform: translate(225.719079px,52.013856px)} 65% {transform: translate(181.280862px,72.402182px)} 75% {transform: translate(53.083292px,131.165695px)} 77% {transform: translate(40.073243px,121.449969px)} 88% {transform: translate(36.239454px,96.255264px)} 90% {transform: translate(53.078495px,68.760563px)} 100% {transform: translate(53.078495px,68.760563px)}} #eZHNALxGjf6152 {animation: eZHNALxGjf6152_c_o 10000ms linear infinite normal forwards}@keyframes eZHNALxGjf6152_c_o { 0% {opacity: 0} 25% {opacity: 0} 27% {opacity: 1} 38% {opacity: 1} 40% {opacity: 0} 50% {opacity: 0} 52% {opacity: 1} 63% {opacity: 1} 65% {opacity: 0} 75% {opacity: 0} 77% {opacity: 1} 88% {opacity: 1} 90% {opacity: 0} 100% {opacity: 0}} #eZHNALxGjf6153_to {animation: eZHNALxGjf6153_to__to 10000ms linear infinite normal forwards}@keyframes eZHNALxGjf6153_to__to { 0% {transform: translate(141.723361px,147.709646px)} 25% {transform: translate(141.723361px,147.709646px)} 30% {transform: translate(104.888074px,103.116717px)} 35% {transform: translate(96.361659px,79.236996px)} 40% {transform: translate(97.446167px,39.772216px)} 50% {transform: translate(118.350189px,143.891032px)} 55% {transform: translate(78.758034px,103.013942px)} 60% {transform: translate(77.898991px,53.819419px)} 65% {transform: translate(92.758543px,16.359641px)} 75% {transform: translate(101.737547px,46.489013px)} 80% {transform: translate(99.399374px,27.828642px)} 85% {transform: translate(97.283605px,28.070295px)} 90% {transform: translate(110.561754px,24.698338px)} 100% {transform: translate(110.561754px,24.698338px)}} #eZHNALxGjf6153_ts {animation: eZHNALxGjf6153_ts__ts 10000ms linear infinite normal forwards}@keyframes eZHNALxGjf6153_ts__ts { 0% {transform: scale(1,1)} 25% {transform: scale(1,1)} 30% {transform: scale(1,1)} 35% {transform: scale(1,1)} 40% {transform: scale(1,1)} 50% {transform: scale(1,1)} 55% {transform: scale(1,1)} 60% {transform: scale(1,1)} 65% {transform: scale(1,1)} 85% {transform: scale(1,1)} 90% {transform: scale(1,1)} 100% {transform: scale(1,1)}} #eZHNALxGjf6153 {animation: eZHNALxGjf6153_c_o 10000ms linear infinite normal forwards}@keyframes eZHNALxGjf6153_c_o { 0% {opacity: 0} 25% {opacity: 0} 30% {opacity: 0.46} 35% {opacity: 0.32} 40% {opacity: 0.22} 50% {opacity: 0.42} 55% {opacity: 0.54} 60% {opacity: 0.2} 65% {opacity: 0.42} 75% {opacity: 0.42} 90% {opacity: 0.42} 100% {opacity: 0.42}} #eZHNALxGjf6154_to {animation: eZHNALxGjf6154_to__to 10000ms linear infinite normal forwards}@keyframes eZHNALxGjf6154_to__to { 0% {transform: translate(98.4px,141.658841px)} 25% {transform: translate(98.4px,141.658841px)} 30% {transform: translate(88.637405px,125.208558px)} 35% {transform: translate(98.717694px,103.823061px)} 40% {transform: translate(97.550106px,86.8px)} 50% {transform: translate(104.294563px,156.084366px)} 55% {transform: translate(84.616321px,114.176179px)} 60% {transform: translate(32.79149px,77.126985px)} 65% {transform: translate(68.702404px,53.839124px)} 75% {transform: translate(81.488357px,57.328084px)} 80% {transform: translate(73.833804px,39.47737px)} 85% {transform: translate(96.556523px,32.850719px)} 90% {transform: translate(100.038924px,36.676884px)} 100% {transform: translate(100.038924px,36.676884px)}} #eZHNALxGjf6154_ts {animation: eZHNALxGjf6154_ts__ts 10000ms linear infinite normal forwards}@keyframes eZHNALxGjf6154_ts__ts { 0% {transform: scale(1,1)} 25% {transform: scale(1,1)} 30% {transform: scale(1,1)} 35% {transform: scale(1,1)} 40% {transform: scale(1,1)} 50% {transform: scale(1,1)} 55% {transform: scale(1,1)} 60% {transform: scale(1,1)} 65% {transform: scale(1,1)} 75% {transform: scale(1,1)} 80% {transform: scale(1,1)} 85% {transform: scale(1,1)} 90% {transform: scale(1,1)} 100% {transform: scale(1,1)}} #eZHNALxGjf6154 {animation: eZHNALxGjf6154_c_o 10000ms linear infinite normal forwards}@keyframes eZHNALxGjf6154_c_o { 0% {opacity: 0} 25% {opacity: 0} 30% {opacity: 0.4} 35% {opacity: 0.36} 40% {opacity: 0.14} 50% {opacity: 0.42} 55% {opacity: 0.54} 60% {opacity: 0.2} 65% {opacity: 0.42} 75% {opacity: 0.42} 80% {opacity: 0.54} 85% {opacity: 0.2} 90% {opacity: 0.42} 95% {opacity: 0.42} 100% {opacity: 0}} #eZHNALxGjf6155_to {animation: eZHNALxGjf6155_to__to 10000ms linear infinite normal forwards}@keyframes eZHNALxGjf6155_to__to { 0% {transform: translate(130.29967px,183.731187px)} 25% {transform: translate(130.29967px,183.731187px)} 30% {transform: translate(117.12801px,180.331151px)} 35% {transform: translate(123.024435px,159.360545px)} 40% {transform: translate(124.761613px,97.396127px)} 50% {transform: translate(137.10611px,181.933427px)} 55% {transform: translate(106.807805px,162.410949px)} 60% {transform: translate(95.169474px,119.593354px)} 65% {transform: translate(98.098447px,48.652501px)} 75% {transform: translate(111.647915px,91.706043px)} 76% {transform: translate(100.951366px,62.177947px)} 80% {transform: translate(121.936247px,63.816608px)} 85% {transform: translate(107.939176px,53.378352px)} 90% {transform: translate(107.52232px,56.551191px)} 100% {transform: translate(107.52232px,56.551191px)}} #eZHNALxGjf6155_ts {animation: eZHNALxGjf6155_ts__ts 10000ms linear infinite normal forwards}@keyframes eZHNALxGjf6155_ts__ts { 0% {transform: scale(1,1)} 25% {transform: scale(1,1)} 30% {transform: scale(1,1)} 35% {transform: scale(1,1)} 40% {transform: scale(1,1)} 50% {transform: scale(1,1)} 55% {transform: scale(1,1)} 60% {transform: scale(1,1)} 65% {transform: scale(1,1)} 75% {transform: scale(1,1)} 76% {transform: scale(1,1)} 80% {transform: scale(1,1)} 85% {transform: scale(1,1)} 90% {transform: scale(1,1)} 100% {transform: scale(1,1)}} #eZHNALxGjf6155 {animation: eZHNALxGjf6155_c_o 10000ms linear infinite normal forwards}@keyframes eZHNALxGjf6155_c_o { 0% {opacity: 0.16} 25% {opacity: 0.16} 30% {opacity: 0.62} 35% {opacity: 0.46} 40% {opacity: 0.57} 50% {opacity: 0.42} 55% {opacity: 0.54} 60% {opacity: 0.2} 65% {opacity: 0.42} 75% {opacity: 0.42} 80% {opacity: 0.54} 85% {opacity: 0.2} 90% {opacity: 0.42} 100% {opacity: 0.42}} #eZHNALxGjf6156_to {animation: eZHNALxGjf6156_to__to 10000ms linear infinite normal forwards}@keyframes eZHNALxGjf6156_to__to { 0% {transform: translate(81.451927px,143.500907px)} 25% {transform: translate(81.451927px,143.500907px)} 30% {transform: translate(101.921138px,121.864067px)} 35% {transform: translate(89.768531px,89.361953px)} 40% {transform: translate(56.841044px,69.571589px)} 50% {transform: translate(96.186942px,141.838681px)} 55% {transform: translate(57.806775px,100.480296px)} 60% {transform: translate(31.625246px,65.154848px)} 65% {transform: translate(51.350941px,11.463342px)} 75% {transform: translate(78.493563px,48.810584px)} 80% {transform: translate(73.808115px,28.942299px)} 85% {transform: translate(83.892304px,29.352237px)} 90% {transform: translate(76.442202px,2.157336px)} 100% {transform: translate(76.442202px,2.157336px)}} #eZHNALxGjf6156_ts {animation: eZHNALxGjf6156_ts__ts 10000ms linear infinite normal forwards}@keyframes eZHNALxGjf6156_ts__ts { 0% {transform: scale(1,1)} 25% {transform: scale(1,1)} 30% {transform: scale(1,1)} 35% {transform: scale(1,1)} 40% {transform: scale(1,1)} 50% {transform: scale(1,1)} 55% {transform: scale(1,1)} 60% {transform: scale(1,1)} 65% {transform: scale(1,1)} 75% {transform: scale(1,1)} 80% {transform: scale(1,1)} 85% {transform: scale(1,1)} 90% {transform: scale(1,1)} 100% {transform: scale(1,1)}} #eZHNALxGjf6156 {animation: eZHNALxGjf6156_c_o 10000ms linear infinite normal forwards}@keyframes eZHNALxGjf6156_c_o { 0% {opacity: 0.34} 25% {opacity: 0.34} 30% {opacity: 0.68} 35% {opacity: 0.46} 40% {opacity: 0.46} 50% {opacity: 0.42} 55% {opacity: 0.54} 60% {opacity: 0.2} 65% {opacity: 0.42} 75% {opacity: 0.42} 80% {opacity: 0.54} 85% {opacity: 0.2} 90% {opacity: 0.42} 100% {opacity: 0.42}} #eZHNALxGjf6157_to {animation: eZHNALxGjf6157_to__to 10000ms linear infinite normal forwards}@keyframes eZHNALxGjf6157_to__to { 0% {transform: translate(96.186942px,141.838681px)} 25% {transform: translate(96.186942px,141.838681px)} 30% {transform: translate(59.96889px,119.16729px)} 35% {transform: translate(51.175209px,81.382173px)} 40% {transform: translate(66.244834px,62.776926px)} 50% {transform: translate(95.377485px,139.067761px)} 55% {transform: translate(58.271695px,108.117332px)} 60% {transform: translate(24.830583px,68.463945px)} 65% {transform: translate(65.721214px,7.987891px)} 75% {transform: translate(72.53687px,42.74598px)} 80% {transform: translate(55.533757px,29.400427px)} 85% {transform: translate(70.954218px,22.557573px)} 90% {transform: translate(59.5402px,-1.768749px)} 100% {transform: translate(59.5402px,-1.768749px)}} #eZHNALxGjf6157_ts {animation: eZHNALxGjf6157_ts__ts 10000ms linear infinite normal forwards}@keyframes eZHNALxGjf6157_ts__ts { 0% {transform: scale(1,1)} 25% {transform: scale(1,1)} 30% {transform: scale(1,1)} 35% {transform: scale(1,1)} 40% {transform: scale(1,1)} 50% {transform: scale(1,1)} 55% {transform: scale(1,1)} 60% {transform: scale(1,1)} 65% {transform: scale(1,1)} 75% {transform: scale(1,1)} 80% {transform: scale(1,1)} 85% {transform: scale(1,1)} 90% {transform: scale(1,1)} 100% {transform: scale(1,1)}} #eZHNALxGjf6157 {animation: eZHNALxGjf6157_c_o 10000ms linear infinite normal forwards}@keyframes eZHNALxGjf6157_c_o { 0% {opacity: 0.42} 25% {opacity: 0.42} 30% {opacity: 0.54} 35% {opacity: 0.2} 40% {opacity: 0.42} 50% {opacity: 0.42} 55% {opacity: 0.54} 60% {opacity: 0.2} 65% {opacity: 0.42} 75% {opacity: 0.42} 80% {opacity: 0.54} 85% {opacity: 0.2} 90% {opacity: 0.42} 100% {opacity: 0.42}}
]]></style>
<defs><rect id="eZHNALxGjf62" width="731.1" height="362.4" rx="0" ry="0"/><linearGradient id="eZHNALxGjf66-fill" x1="300.5796" y1="381.7237" x2="562.2714" y2="-233.8346" spreadMethod="pad" gradientUnits="userSpaceOnUse" gradientTransform="translate(0 0)"><stop id="eZHNALxGjf66-fill-0" offset="13.63%" stop-color="#05a3d9"/><stop id="eZHNALxGjf66-fill-1" offset="45.78%" stop-color="#79bfe9"/><stop id="eZHNALxGjf66-fill-2" offset="99.14%" stop-color="#fff"/></linearGradient><filter id="eZHNALxGjf620-filter" x="-150%" width="400%" y="-150%" height="400%"><feGaussianBlur id="eZHNALxGjf620-filter-blur-0" stdDeviation="4,0" result="result"/></filter></defs><g><g><g clip-path="url(#eZHNALxGjf647)"><g id="eZHNALxGjf66_to" transform="translate(365,182.5)"><g id="eZHNALxGjf66_ts" transform="scale(1,1)"><rect width="960.131126" height="491.343882" rx="0" ry="0" transform="translate(-504.960106,-267.973042)" fill="url(#eZHNALxGjf66-fill)"/></g></g><rect width="876" height="487.3" rx="0" ry="0" transform="translate(-1505-2)" fill="#010101" stroke="#fff" stroke-miterlimit="10"/><g><g><g><g id="eZHNALxGjf611_to" transform="translate(500.262848,254.99205)"><g id="eZHNALxGjf611_tr" transform="rotate(0)"><path d="M508.5,242.6c.1-.1.2-.3.2-.4s0-.2,0-.3c.3,0,.6-.2.7-.7.1-.4,0-.9-.3-1c0,0,0,0-.1,0c.1-.1.3-.3.3-.5.1-.4,0-.7-.1-.9c0-.2.1-.4.1-.5.2-.1.4-.3.5-.6c0-.2.1-.3,0-.5c0-.1.1-.2.1-.3c0-.2.1-.3,0-.5.2-.1.4-.3.5-.6.1-.4,0-.8-.2-.9c0,0,0-.1,0-.1.1-.2.1-.5,0-.6.2-.1.3-.3.4-.6.1-.4,0-.9-.3-1c0,0-.1,0-.1,0c.1-1.1-.1-1.8-.5-2.1-.6-.3-1-.1-1.3.6-.3,0-.6.3-.7.7s0,.8.3.9c0,.1,0,.1,0,.2-.1.1-.1.2-.2.4c0,.2-.1.3,0,.4-.2.1-.3.3-.4.6-.1.4,0,.8.3,1c0,.2-.1.4-.1.6-.1,0-.2.1-.3.2-.1-.3-.2-.5-.5-.6c0-.1,0-.2,0-.3.2-.1.4-.4.4-.7c0-.2-.1-.4-.1-.5s0-.1,0-.2c0-.2-.1-.4-.1-.5.3-.1.5-.4.5-.8s-.2-.7-.4-.8c0-.2.1-.4.1-.6.4,0,.6-.4.6-.8c0-.3-.1-.5-.2-.6.1-.1.1-.3.1-.4c0-.2,0-.3-.1-.4c0-.1,0-.1,0-.2.3-.1.6-.4.6-.8s-.2-.7-.5-.8c-.1-.7-.5-1-1.3-.9-.5.1-.9.8-1.2,1.8c0,0-.1,0-.1,0-.4,0-.7.4-.7.8c0,.3.1.5.3.7-.1.2-.2.4-.2.6c0,0,0,.1,0,.1-.3.1-.6.4-.6.8c0,.3.2.6.4.8-.1.1-.1.3-.1.5c0,.1,0,.2,0,.3-.1.1-.1.3-.1.5c0,.3.1.6.4.7c0,.2,0,.4,0,.6-.3.1-.4.4-.4.8c0,.2.1.4.2.6c0,0,0,0-.1,0-.4,0-.7.4-.7.8s.3.8.6.8c0,.1-.1.2-.1.3c0,.2.1.4.2.6-.1.2-.2.4-.2.6s0,.3.1.5c-.1.2-.2.4-.2.6c0,.4.2.7.5.8.1.4.1.8.2,1.3-1.6.1-4.3.3-4.3.3s3.3-1.6,3.3-2.3-.8-1.6-1.8-1c-.5.3-1.3.8-2,1.3.1-.6.2-1.2.3-1.8.3-.1.5-.4.5-.8c0-.2-.1-.4-.2-.6.1-.1.1-.3.1-.5s-.1-.5-.2-.6c.1-.1.1-.3.1-.6c0-.1,0-.2,0-.3.3,0,.5-.4.5-.8c0-.5-.3-.8-.6-.8c0,0,0,0-.1,0c.1-.2.2-.4.2-.6c0-.4-.2-.7-.4-.8c0-.2,0-.4,0-.6.2-.1.3-.4.3-.7c0-.2,0-.3-.1-.5c0-.1,0-.2,0-.3c0-.2,0-.3-.1-.5.2-.1.3-.4.3-.8s-.2-.8-.5-.8c0,0,0-.1,0-.1c0-.2-.1-.5-.2-.6.1-.2.2-.4.2-.7c0-.5-.3-.8-.6-.8c0,0-.1,0-.1,0-.2-1-.6-1.8-1-1.8-.7-.1-1,.2-1.1.9-.3.1-.5.4-.5.8s.2.8.5.8c0,.1,0,.1,0,.2s-.1.3-.1.4c0,.2,0,.3.1.4-.1.2-.2.4-.2.6c0,.4.2.8.5.8c0,.2.1.4.1.6-.2.1-.4.4-.4.8s.2.7.4.8c-.1.1-.1.3-.1.5c0,.1,0,.1,0,.2-.1.1-.1.3-.1.5c0,.3.1.6.3.7c0,.1,0,.2,0,.3-.2.1-.4.4-.4.8c0,.3.1.5.2.7-.1.2-.2.4-.2.7c0,.2.1.5.2.6c0,.2,0,.3-.1.5-.2.1-.4.4-.4.8c0,.2.1.5.2.6-.1.9-.3,1.8-.4,2.6-.6-.7-2.1-3.1-2.1-3.1s.3-1.3-.5-2.2c-.8-.8-1.2-2.1-1.3-2.6s-.8-1.3-.8-1.3-.8-1.8-1.7-1.3c-.8.5-.8,1.7-.3,2.4.4.8.8,2.3.8,2.3l-.3.7c0,0-1.8-1.3-3.1-1.4-.2,0-.3,0-.5,0c.1-.1.3-.3.3-.5.1-.4,0-.9-.3-1c0,0,0,0-.1,0c.1-.1.3-.3.3-.5.1-.4,0-.7-.1-.9c0-.2.1-.4.1-.5.2-.1.4-.3.5-.6c0-.2.1-.3,0-.5c0-.1.1-.2.1-.3c0-.2.1-.3,0-.5.2-.1.4-.3.5-.6.1-.4,0-.8-.2-.9c0,0,0-.1,0-.1.1-.2.1-.5,0-.6.2-.1.3-.3.4-.6.1-.4,0-.9-.3-1c0,0-.1,0-.1,0c.1-1.1-.1-1.8-.5-2.1-.6-.3-1-.1-1.3.6-.3,0-.6.3-.7.7s0,.8.3.9c0,.1,0,.1,0,.2-.1.1-.1.2-.2.4c0,.2-.1.3,0,.4-.2.1-.3.3-.4.6-.1.4,0,.8.3,1c0,.2,0,.4-.1.6-.2.1-.5.3-.6.6-.1.4,0,.8.2.9-.1.1-.2.3-.3.5c0,.1,0,.1,0,.2-.1.1-.2.3-.3.5-.1.3,0,.6.1.8c0,.1-.1.2-.1.3-.3,0-.5.3-.6.7-.1.3-.1.5,0,.7-.2.1-.3.3-.4.6-.1.2-.1.5,0,.6-.1.1-.1.3-.2.4-.2.1-.5.3-.6.7-.1.2-.1.5,0,.7-.2.4-.4.8-.5,1.2c0-.2.1-.4,0-.6-.1-.4-.3-.6-.5-.7c0-.2,0-.4-.1-.6.3-.1.4-.5.3-1-.1-.3-.2-.5-.4-.6c0-.1,0-.3,0-.5s-.1-.3-.2-.4c0-.1,0-.1,0-.2.3-.1.4-.5.3-.9s-.4-.7-.7-.7c-.3-.7-.6-.9-1.3-.6-.4.2-.6,1-.6,2.1c0,0-.1,0-.1,0-.3.1-.5.5-.4,1c.1.3.2.5.4.6-.1.2-.1.4,0,.6c0,0,0,.1,0,.1-.3.1-.4.5-.3.9.1.3.3.6.5.7c0,.1,0,.3,0,.5c0,.1.1.2.1.3s0,.3,0,.5v0c-1.3-.4-2.8-.6-2.8-.6s-.2-1-.1-2-.1-2.5-.1-2.5l-.8-.7c0-.1,0-.2,0-.3c0-.2-.1-.3-.1-.4s0-.2,0-.2c.2-.1.3-.5.2-1-.1-.4-.3-.8-.5-.8-.1-.6-.4-.9-.7-.8-.1,0-.2,0-.3,0-.9.3-1.8.8-1.2,2.8.2.8.4,1.5.6,2c0,0,0,.1,0,.1-.2.1-.3.6-.2,1c0,.4.2.7.4.8c0,.2,0,.3,0,.5c0,.1,0,.2.1.3c0,.2,0,.4,0,.5c0,.2.1.4.2.6c0,.3.1.7.1,1-.1.2-.1.5-.1.8s.1.5.2.6c0,0,0,0,0,0-.2.1-.4.5-.3,1s.3.8.5.8c0,.1,0,.2,0,.4s.1.4.2.6c-.1.2-.1.4,0,.7c0,.2.1.4.1.5-.1.2-.1.4,0,.7.1.4.3.8.5.8.2.7.4,1.5.6,2.3-.3-.3-.5-.4-.7-.4-.1-.1-.3-.2-.4-.4s-.2-.4-.4-.6-.4-.4-.6-.4c0-.2-.2-.5-.4-.7-.3-.3-.6-.5-.8-.4-.1-.1-.2-.2-.3-.3c0-.2-.2-.5-.4-.8-.1-.2-.3-.3-.4-.4c0,0-.1-.1-.1-.1-.1-.2-.3-.3-.4-.4.1-.2-.1-.6-.4-.9s-.6-.5-.7-.4c-.1-.2-.3-.4-.4-.6.1-.2,0-.6-.3-1-.2-.2-.4-.4-.6-.4-.1-.1-.2-.3-.3-.4s-.2-.2-.3-.3c0-.1-.1-.1-.1-.2.1-.2,0-.6-.4-1-.3-.3-.6-.5-.8-.4-.5-.5-.9-.6-1.2-.1-.2.3.2,1.1.8,2.1c0,0,0,0-.1,0-.2.2,0,.6.3,1c.2.2.4.4.6.4.1.2.2.4.4.6c0,0,.1.1.1.1-.1.2.1.6.4,1c.2.3.5.4.7.4.1.1.2.3.3.5.1.1.1.1.2.2.1.2.2.3.3.5.2.3.5.4.7.4.1.2.3.3.4.5c0,.2.1.6.4.9.2.2.3.3.5.4c0,0,0,0,0,0-.2.2,0,.6.3,1s.7.5.9.4c.1.1.1.2.2.3.2.2.3.3.5.4.1.2.2.4.4.6.1.1.3.3.4.3.1.2.2.4.3.6.3.3.6.5.8.4.6.5,1.2,1.1,1.8,1.7v.1c-.4-.2-.7-.3-.9-.2-.6.3-.7.7-.4,1.3-.2.2-.2.6.1.9.2.4.6.5.9.4c0,.1.1.1.1.2s.1.3.2.4.2.2.3.3c0,.2,0,.4.2.7.2.4.6.5.9.4.1.1.3.3.4.5-.1.2-.1.6.1.8.2.3.6.5.8.4c0,.2.1.3.2.5c0,0,.1.1.1.1c0,.2.1.3.2.5.2.3.4.4.7.4.1.1.1.2.2.3c0,0-.1.1-.1.2-.2-.1-.4-.1-.5-.1-.1-.2-.2-.4-.5-.5-.4-.2-.8-.2-1,0c0,0,0,.1,0,.1-1-.3-1.8-.4-2.1-.1-.2.2-.3.5-.3.7-.4-.4-.8-.7-1.2-1.1-.1-.2-.2-.4-.4-.6-.3-.3-.6-.5-.8-.4-.1-.1-.3-.2-.4-.4s-.2-.4-.4-.6-.4-.4-.6-.4c0-.2-.2-.5-.4-.7-.3-.3-.6-.5-.8-.4-.1-.1-.2-.2-.3-.3c0-.2-.2-.5-.4-.8-.1-.2-.3-.3-.4-.4c0,0-.1-.1-.1-.1-.1-.2-.3-.3-.4-.4.1-.2-.1-.6-.4-.9s-.6-.5-.7-.4c-.1-.2-.3-.4-.4-.6.1-.2,0-.6-.3-1-.2-.2-.4-.4-.6-.4-.1-.1-.2-.3-.3-.4s-.2-.2-.3-.3c0-.1-.1-.1-.1-.2.1-.2,0-.6-.4-1-.3-.3-.6-.5-.8-.4-.5-.5-.9-.6-1.2-.1-.2.3.2,1.1.8,2.1c0,0,0,0-.1,0-.2.2,0,.6.3,1c.2.2.4.4.6.4.1.2.2.4.4.6c0,0,.1.1.1.1-.1.2.1.6.4,1c.2.3.5.4.7.4.1.1.2.3.3.5.1.1.1.2.2.2.1.2.2.3.3.5.2.3.5.4.7.4.1.2.3.3.4.5c0,.2.1.6.4.9.2.2.4.3.5.4c0,0,0,0,0,0-.2.2,0,.6.3,1s.7.5.9.4c.1.1.1.2.2.3.2.2.3.3.5.4c0,.1,0,.1.1.2v0c-.4-.2-.7-.3-.9-.1-.1-.1-.2-.1-.3-.2-.1-.2-.3-.4-.6-.6-.2-.1-.4-.2-.5-.2c0,0-.1-.1-.2-.1-.2-.1-.4-.2-.5-.2c0-.2-.3-.5-.7-.8-.3-.2-.7-.3-.8-.2-.2-.1-.4-.3-.6-.4.1-.2-.2-.6-.6-.8-.3-.1-.5-.2-.7-.2-.1-.1-.2-.2-.4-.3-.1-.1-.3-.1-.4-.2-.1,0-.1-.1-.2-.1c0-.2-.2-.6-.7-.8-.4-.2-.8-.3-.9-.1-.7-.3-1.1-.3-1.2.3c0,.4.6,1,1.5,1.7c0,0,0,0,0,.1-.1.2.2.6.6.9.3.2.5.2.7.2.1.2.3.3.5.5c0,0,.1,0,.1.1c0,.2.3.6.7.8.3.2.6.2.8.2.1.1.3.2.4.3s.2.1.3.1c.1.1.3.2.4.3.3.2.6.2.8.2.2.1.4.2.5.3c0,.2.3.5.7.7.2.1.4.2.6.2c0,0,0,0,0,0-.1.2.2.6.6.9.4.2.8.3.9.1.1.1.2.2.3.2.2.1.4.2.6.2.1.2.3.3.5.5.2.1.3.2.5.2.1.2.3.3.5.4.4.2.8.3.9.1.7.3,1.5.7,2.3,1c.2.1.3.3.5.4v.1c0,1-2.7.3.3,3.4.3.3.6.6.9.9-.4-.1-.7-.2-1.1-.3-.1-.2-.3-.3-.5-.4-.3-.1-.7-.1-.9.1-.2,0-.3-.1-.5-.1-.1-.2-.3-.3-.5-.4-.3-.1-.5-.1-.7,0-.1-.2-.3-.4-.5-.5-.4-.1-.7-.1-.9.1-.1,0-.2-.1-.3-.1-.1-.2-.3-.4-.6-.6-.2-.1-.4-.1-.5-.1c0,0-.1,0-.1-.1-.2-.1-.4-.1-.5-.1c0-.3-.2-.6-.6-.7-.3-.1-.7-.1-.9,0-.2-.1-.4-.2-.5-.3.1-.3-.2-.6-.6-.8-.2-.1-.5-.1-.7,0-.1-.1-.2-.2-.4-.2-.1-.1-.3-.1-.4-.1s-.1-.1-.2-.1c.1-.3-.2-.6-.6-.8s-.8-.1-.9.1c-.7-.2-1.1,0-1.2.7-.1.4.5,1,1.3,1.6c0,0,0,.1,0,.1-.1.3.1.7.6.8.3.1.5.1.7,0c.1.2.3.3.5.4c0,0,.1,0,.1,0c0,.3.2.6.6.8.3.1.6.1.8,0c.1.1.2.2.4.3.1,0,.2.1.3.1.1.1.2.2.4.3.3.1.6.1.8,0c.2.1.3.2.5.2c0,.2.3.5.6.7.2.1.4.1.6.1c0,0,0,0,0,.1-.1.3.1.7.6.8.4.2.8.1,1-.2.1.1.2.1.3.2.2.1.4.1.6.1.1.2.3.3.5.4s.3.1.5.1c.1.2.3.3.5.4.4.1.8.1.9-.1c1.9.5,4.3.9,5.8,1.1.6.4,1.2.6,1.7.6c1.5,0,3.6.4,4.3,1.5s.1,1.4,2.2,2.7s2,.7,3.9,1.4c1.9.8,2.5.9,3.4,1.8s3.4,1,8.5,5.4s8.9,6.2,8.9,6.2s6.4-.1,6.8-.3c.4-.3,4.2-2.8,4.3-4.8.1-1.9,2-5.8,2.3-8.9.3-3.2,4.5-5.8,5.2-9.7s1.3-7.6,1.3-9.6c0-.2,0-.4,0-.7.1-.1.1-.2.2-.4c0-.1,0-.2,0-.3.3,0,.6-.3.7-.7.1-.5-.1-.9-.4-1c0,0,0,0-.1,0c.1-.1.3-.3.3-.5.1-.4,0-.7-.2-.9c0-.2.1-.4.1-.6.2-.1.4-.3.5-.7c0-.2,0-.3,0-.5c0-.1.1-.2.1-.3c0-.2,0-.3,0-.5.2-.1.4-.3.5-.7s0-.8-.3-.9c0,0,0-.1,0-.1.1-.2,0-.5,0-.6.2-.1.3-.3.4-.6.1-.5-.1-.9-.4-1c0,0-.1,0-.1,0c0-1.1-.1-1.9-.6-2.1-.2-.1-.5-.1-.6-.1-.1-.5-.2-.9-.5-1-.5-.2-.9-.1-1.1.3l.1-.5c.2-.1.4-.3.5-.7c0-.2,0-.4,0-.5s.1-.2.1-.3c0-.2,0-.3,0-.5.2-.1.4-.3.5-.7s0-.8-.3-.9c0,0,0-.1,0-.1.1-.2,0-.5,0-.6.2-.1.3-.3.4-.6.1-.5-.1-.9-.4-1c0,0-.1,0-.1,0c0-1.1-.1-1.9-.6-2.1-.6-.3-1,0-1.3.6-.2,0-.4.2-.6.5.3-1.2.7-2.6,1-3.8.2,0,.4-.4.5-.8c0-.3,0-.5,0-.7.1-.1.1-.3.1-.5c0-.3,0-.5,0-.7.1-.1.2-.3.2-.6c0-.1,0-.3,0-.4.2,0,.4-.3.5-.8s-.1-1-.3-1c0,0,0,0,0,0c.1-.1.2-.4.2-.6.1-.4,0-.8-.2-.9c0-.2,0-.4.1-.6.2-.1.3-.4.3-.7c0-.2,0-.4,0-.5s0-.2.1-.3c0-.2,0-.4,0-.5.2-.1.3-.4.4-.8.1-.5,0-.9-.2-1c0,0,0-.1,0-.1c0-.3,0-.5,0-.7.1-.1.2-.4.3-.7.1-.5-.1-1-.3-1c0,0,0,0-.1,0c0-1.2-.2-2.1-.5-2.2-.5-.3-.8,0-.9.7-.2,0-.4.4-.5.8-.1.5.1.9.3,1c0,.1,0,.2,0,.2-.1.1-.1.3-.1.4c0,.2,0,.3,0,.5-.1.1-.2.4-.2.7-.1.5.1.9.3,1c0,.2,0,.4,0,.7-.2.1-.3.4-.4.8s0,.8.2,1c-.1.1-.1.3-.2.5c0,.1,0,.1,0,.2-.1.1-.1.3-.2.5c0,.3,0,.7.1.9c0,.1,0,.2-.1.4-.2,0-.4.4-.4.8c0,.3,0,.6.1.8-.1.1-.2.4-.3.7c0,.3,0,.5,0,.7s-.1.3-.1.5c-.2.1-.3.4-.4.8c0,.3,0,.5.1.7-.4,1.9-.9,3.7-1.2,5c0,0-.1,0-.1,0-.1-.6-.2-1-.5-1.1-.6-.3-1,0-1.3.6c0,0,0,0,0,0c0-.5.1-1,.1-1.5.3-.1.4-.5.4-.9c0-.2-.1-.4-.2-.6c0-.1.1-.3,0-.5c0-.2-.1-.4-.2-.6.1-.2.1-.4.1-.6c0-.1,0-.2-.1-.3.3-.1.5-.5.4-.9c0-.5-.3-.8-.7-.8c0,0,0,0-.1,0c.1-.2.1-.4.1-.6c0-.4-.2-.7-.5-.7c0-.2-.1-.4-.1-.6.2-.2.3-.4.2-.8c0-.2-.1-.3-.2-.5c0-.1,0-.2,0-.3c0-.2-.1-.3-.1-.5.2-.2.3-.5.3-.8c0-.4-.3-.7-.6-.8c0,0,0-.1,0-.1c0-.2-.1-.4-.2-.6.1-.2.2-.4.2-.7c0-.5-.3-.8-.7-.8c0,0-.1,0-.1,0-.3-1-.7-1.7-1.2-1.7-.7-.1-1,.3-1,1-.3.1-.4.5-.4.9s.3.7.6.8c0,.1,0,.1,0,.2s0,.3,0,.4c0,.2.1.3.1.4-.1.2-.2.4-.1.7c0,.4.3.8.6.8c0,.2.1.4.2.6-.2.1-.3.4-.3.7c0,0,0,0-.1,0c0-.8-.2-1.4-.5-1.5-.5-.2-.8,0-.9.5-.2,0-.4.2-.5.5s0,.6.3.7c0,.1,0,.1,0,.2-.1.1-.1.2-.1.3s0,.2,0,.3c-.1.1-.2.3-.2.4-.1.3.1.6.3.7c0,.1,0,.3,0,.5-.2.1-.3.3-.4.5-.1.3,0,.6.2.7-.1.1-.1.2-.2.4c0,0,0,.1,0,.1c0,.1-.1.1-.1.2-.1-.1-.2-.1-.3-.1c0,0,0,0-.1,0c.1-.2.1-.4.1-.6c0-.4-.2-.7-.5-.7c0-.2-.1-.4-.1-.6.2-.2.3-.4.2-.8c0-.2-.1-.3-.2-.5c0-.1,0-.2,0-.3c0-.2-.1-.3-.1-.5.2-.2.3-.5.3-.8c0-.4-.3-.7-.6-.8c0,0,0-.1,0-.1c0-.2-.1-.4-.2-.6.1-.2.2-.4.2-.7c0-.5-.3-.8-.7-.8c0,0-.1,0-.1,0-.3-1-.7-1.7-1.2-1.7-.7-.1-1,.3-1,1-.3.1-.4.5-.4.9s.3.7.6.8c0,.1,0,.1,0,.2s0,.3,0,.4c0,.2.1.3.1.4-.1.2-.2.4-.1.7c0,.4.3.8.6.8c0,.1.1.2.1.4-.3,0-.5.3-.6.9-.2,0-.4.4-.5.8-.1.5,0,.9.3,1c0,.1,0,.2,0,.2-.1.1-.1.3-.1.4c0,.2,0,.3,0,.5-.1.1-.2.4-.2.7-.1.5.1.9.3,1c0,.2,0,.4,0,.7-.2.1-.3.4-.4.8s0,.8.2,1c-.1.1-.1.3-.2.5c0,.1,0,.1,0,.2-.1.1-.1.3-.2.5c0,.3,0,.7.1.9v.1c0-.2-.1-.4-.2-.5c0,0,0-.1,0-.1c0-.3,0-.5,0-.7.1-.1.2-.4.3-.7.1-.5-.1-1-.3-1c0,0,0,0-.1,0c0-1.2-.2-2.1-.5-2.2-.5-.3-.8,0-.9.7-.2,0-.4.4-.5.8-.1.5,0,.9.3,1c0,.1,0,.2,0,.2-.1.1-.1.3-.1.4c0,.2,0,.3,0,.5-.1.1-.2.4-.2.7-.1.5.1.9.3,1c0,.2,0,.4,0,.7-.2.1-.3.4-.4.8s0,.8.2,1c-.1.1-.1.3-.2.5c0,.1,0,.1,0,.2-.1.1-.1.3-.2.5c0,.4,0,.7.1.9c0,.1,0,.2-.1.4-.2,0-.4.4-.4.8c0,.3,0,.6.1.8c0,0,0,0,0,0c0-.1-.1-.1-.1-.2.1-.2,0-.5-.1-.8-.1-.2-.2-.3-.4-.4c0,0,0-.1,0-.1.1-1,.2-2.2.2-3.2.2-.1.3-.3.3-.6c0-.2-.1-.3-.2-.4c0-.1,0-.2,0-.3c0-.2-.1-.3-.2-.4.1-.1.1-.3.1-.4s0-.2-.1-.2c.2-.1.4-.3.3-.7c0-.3-.3-.6-.5-.6c0,0,0,0,0,0c.1-.1.1-.3.1-.5c0-.3-.2-.5-.3-.6c0-.1,0-.3-.1-.4.1-.1.2-.3.2-.6c0-.1-.1-.3-.1-.3c0-.1,0-.1,0-.2s-.1-.2-.1-.3c.1-.1.2-.3.2-.6s-.2-.6-.4-.6c0,0,0-.1,0-.1c0-.2-.1-.3-.2-.4.1-.1.1-.3.1-.5c0-.3-.3-.6-.5-.6c0,0,0,0-.1,0-.3-.8-.6-1.3-.9-1.3-.5,0-.7.2-.7.8-.2.1-.3.3-.3.6s.2.6.4.6c0,.1,0,.1,0,.2s0,.2,0,.3s0,.2.1.3c-.1.1-.1.3-.1.5c0,.3.2.6.5.6c0,.1.1.3.1.4-.1.1-.2.3-.2.6c0,.2.1.4.3.5-.1.1-.2.4-.3.7-.2,0-.4.4-.5.8-.1.5,0,.9.3,1c0,0,0,.1,0,.1-.2-.2-.5-.3-.7-.3-.4-.5-.9-.7-1.4-.2-.3.3-.3,1.1.1,2.1c0,0-.1,0-.1,0-.3.2-.3.6-.1,1c.1.2.3.4.5.5c0,.2,0,.4.2.6c0,0,0,.1.1.1-.2.2-.2.6,0,1c.2.3.4.5.7.5c0,.1.1.3.2.5c0,0,0,0,0,.1c0,0,0,.1,0,.1-.1.1-.1.3-.2.5c0,.3,0,.7.1.9c0,.1,0,.2-.1.4-.2,0-.3.3-.4.6.1,0,.1.1.1.1.5,2.8-.6,2.3-1.2,1.6s-1.4-.8-.5-1.6c.3-.3.7-.4.9-.3-.1-.1-.2-.2-.4-.3s-.5-.1-.7,0c-.1-.1-.2-.2-.4-.2-.1-.1-.3-.1-.4-.1s-.1-.1-.2-.1c0-.2-.1-.5-.4-.7-.3-.6-.7-1.2-1.2-1.5.8-.6.8-.6.7-.7v0Zm-25.7-5.1l-.1.2c0,0,0,0-.1-.1.1,0,.2,0,.2-.1v0Zm1.3,4.4c-.1-.2-.2-.3-.3-.5.3-.5.6-1.1.9-1.8l.3,2.3-.8-.1c0,.1,0,.1-.1.1v0Zm-1.2,9.1c0-.1-.1-.1-.1-.1s.1,0,.1-.1c0,.1,0,.2,0,.2v0Zm-.1-1.5c-.1-.1-.2-.2-.3-.2c0-.2,0-.4-.1-.6c0,0,.1,0,.1,0c.2.3.3.5.3.8v0Zm-2.7-4.3c0,.2,0,.4,0,.7c0,0-.1,0-.1,0-.3.1-.5.5-.4,1c.1.3.2.5.4.6-.1.2-.1.4,0,.6c0,0,0,.1,0,.1-.3.1-.4.5-.3.9.1.3.3.6.5.7c0,.1,0,.3,0,.5c0,.1.1.2.1.3s0,.2,0,.4c-.3-.2-.6-.5-.9-.8-.3-1.2-.9-3.6-1.5-6.3.1-.2.1-.5.1-.7-.1-.4-.2-.7-.4-.8c0-.2-.1-.3-.1-.5c0-.1,0-.1,0-.2.4.4.8.8,1.1,1.2.9,1.2.5,1.1,1.5,2.3v0Zm9.7,1.1c.1-.2.3-.3.5-.3.3-.7.6-.9,1.3-.6.4.2.6,1,.6,2.1c0,0,.1,0,.1,0c.3.1.5.5.4,1-.1.3-.2.5-.4.6.1.2.1.4,0,.6c0,0,0,.1,0,.1.1.1.2.2.3.4.5.3.9.2,1.4-.1c1.1-.6-.4-2.5-.4-3.9s-.8-1.3-.5-1.8-.5-1.3-1.1-1.9c-.6-.7-1.4-1.3-2.8-1.7s-1.7-.5-1.7-.5c-.5.3.2,1.5.3,2.2s.4,1,1.2,2c.3.6.5,1.1.8,1.8v0Zm44.4-4.4c-.2-.6-.3-1.2-.5-1.8.2-.6.4-1.5.7-2.4c0,.4.1.7.3.8c0,.1,0,.1,0,.2-.1.1-.1.2-.2.4c0,.2,0,.3,0,.5-.2.1-.3.3-.4.6-.1.4,0,.9.3,1c0,.2,0,.4-.1.6c0-.1-.1,0-.1.1v0Zm-6.5-8.8c0,0-.1,0-.1,0-.2-.6-.5-.8-1-.7l.1-.4c.2-.1.3-.3.3-.5c0-.1,0-.3,0-.4s0-.1.1-.2c0-.1,0-.3,0-.4.2-.1.3-.3.4-.5.1-.3,0-.6-.2-.7c0,0,0-.1,0-.1c0-.2,0-.3,0-.5.1-.1.2-.2.3-.4.1.1.1.1.2.1-.1.2-.1.3-.1.5c0,.1,0,.1,0,.2-.1.1-.1.3-.1.5c0,.3.2.6.4.7c0,.1,0,.2,0,.3-.2.1-.4.5-.3.8c0,.3.1.5.3.6-.1.2-.2.4-.2.7-.2.3-.2.3-.1.4v0Zm-2.4,4.8c.1.3.3.5.5.6c0,.1,0,.3,0,.5c0,.1.1.2.1.3c0,.2,0,.3,0,.5.1.3.3.6.5.7c0,.2.1.4.1.6-.2.2-.3.5-.2.9.1.2.2.4.3.5c0,0,0,0-.1,0-.2.1-.4.3-.4.6-.4-.9-.5-1.9-.9-2.1-.2-.1-.5-.2-.8-.2c0-.3,0-.5.1-.8.3-.7.6-1.4.8-2.1v0Zm1.5,6.2c0,0,.1,0,.1,0s0,.1,0,.1v0c0-.1-.1-.1-.1-.1v0Zm-33.6,15.6c0,0,1.8,0,1.8,2s2.3,3.3.1,2.4c-2.1-.9-1.4-2.9-2.8-3s.9-1.4.9-1.4v0Zm16.4-2.5c0,0,1.6,3.4,1.1,3.2s-1.9-1.6-2.1-2.8-.7-.8-1.3-1.7c-.6-.8-.9-1.5-.3-2c.7-.5,3.1-1.8,3-.5c0,1.3-.4,3.8-.4,3.8v0Zm.3,23.9c0,0,.7-1.2,2.7.3c2,1.4,3.3,2.1,2,2-1.3-.2-4.7-2.3-4.7-2.3v0Zm6.3-30.7c0,0,1-.1,1,.7s-.3,1.3.2,1.8.2.1.2,1.2.3,2.2.3,2.2-.3.2-1-1c-.8-1.2-1-1.7-.8-2.4s.7-1,.1-1.4s0-1.1,0-1.1v0Zm-3.6-1.4c0,.1-.1.1-.1.2-.7.3-1.4.5-1.7-.2-.2-.4-.3-.8-.4-1.2.1,0,.1.1.2.1c0,0,.1,0,.1,0c0,.3.2.6.6.8.3.1.6.1.8,0c.1.1.3.2.5.3-.1,0,0,0,0,0v0Zm-32.8,12.7c-.1,0-.2.1-.2.2-.2-.2-.4-.3-.6-.5c0,0,.1-.1.1-.1.1,0,.1.1.2.1.1.1.2.2.3.3.1,0,.2,0,.2,0v0Zm-1.3-9.6v0c.1.1.2.2.3.3c0,0,0,0,0,0-.1-.2-.2-.2-.3-.3v0Zm1.4,1.2v0c.1.1.1.1,0,0v0v0Zm.5.4l.2.2c0,0,0,0-.1,0c0-.1-.1-.1-.1-.2c0,0,0,0,0,0v0Zm6.2-17.6c1.3-.1,3.3-.2,3.6.2.4.6,1.4,2.9,1.4,2.9s-1.9-.4-3.3-.9c-.9-.3-1.9-.7-2.5-1v-.1c.3,0,.6-.3.7-.7.1-.1.1-.2.1-.4v0Zm35.2,5.9c-.1.1-.2.2-.3.3c0-.1,0-.2-.1-.3.1-.1.2-.3.2-.6c0-.1,0-.3,0-.4.1,0,.2,0,.2-.1.1.4,0,.7,0,1.1v0Zm-2.4.2c0,0,0-.1,0,0c.1-.1.1-.3.1-.4c0,0-.1.1-.1.1v.3v0Zm2.6-5.3c0,.1-.1.1-.1.1c0,.2,0,.4-.1.6.1.1.2.4.2.6c0-.4.1-.8,0-1.3.1,0,0,0,0,0v0Zm0,1.6v0c0,.3-.1.5-.2.6c0,0,0,0,0,0s.1,0,.1.1c.1-.2.1-.4.1-.7v0Z" transform="translate(-500.262848,-254.99205)" clip-rule="evenodd" fill="#0e3a5e" fill-rule="evenodd"/></g></g><path d="M595.9,290c0,0-1.2-3.5-2.4-4.3-1.3-.8-2.3-2-2.5-2.7s-.2-1.7-.7-2.2-2.3-2.9-2.8-3.1c-.5-.1-2.8-1.7-3.4-1.6-.5.1-3.8-.3-4.7.6s-3.5,2.8-8.4,2.5-11.7-.8-14.6-.8-10.1.7-10.1.7.8,1.1-4.2,1.1c-5.1,0-8.2.2-8.9.8s-1.4,1.5-1.4,1.5l-7.2,1.4c0,0-1.4-1.2-3.5.6s-2.3,2.2-5.3,2.6c-2.9.4-2.9,1.8-6.2.7s-4.8-2.4-8.1-1.5-3.9,1.3-5.7,1.8-7.5-.9-7.5-.9l-4.2.3-6.5,4.3L595.9,290v0Z" clip-rule="evenodd" fill="#0e3a5e" fill-rule="evenodd"/></g><g><path d="M36.7,274.9c0,0,2.6-.1,3.4.3s1.7.1,2.6.7c.8.6.8.5,1.4,1.1s.4.6.9,1.1.8.1,1.5,1.3s1,1.9,1.4,2.2c.4.4,1.3.4,1.3,1.3-.1.9-.5,1.1-.3,2c.2,1,.4,1.7-.5,2.6-.9.8-.8,1.2-1.3,1.2s-33.8-.1-33.8-.1-.4-1.5-.2-2c.1-.5-.5-1.4-.2-2.2.2-.7.7-.1.9-1.7.2-1.7.2-2,1-2.6.8-.7,1.6-.4,1.6-1.3c0-.8.1-2,1-1.7.9.2,1.3.1,1.3-.2.1-.4.1-1.8.8-1.7s1,1.2,1.6.2s1.4-.9,1.4-1.3-.5-.4,0-1s.4-.7.8-1.1-.2-.1.7-.8.7-.9,1.1-1.1.8-.5,1.4-.5s1.9-.8,2.2-.8s1.1-1,2,.1s1.6,1.8,1.7,2.1c-.1.4,4.5,1.7,4.3,3.9v0Z" clip-rule="evenodd" fill="#0e3a5e" fill-rule="evenodd"/><path d="M62.1,287.2c.3-.2.5-.3.8-.3-.3-.1-.7-.3-1.1-.5-.1-.1-.2-.2-.1-.4.1-.1.2-.2.4-.1.4.2.8.4,1.2.5-.1-.2-.2-.4-.4-.5v0c-.3,0-.3,0-.6,0-.1,0-.2-.2-.2-.3s.2-.2.3-.2c1.7.3,1.1.9,1.6,1.1.2,0,.4,0,.6,0v0c-.2-.6-2.7-1.2-1.6-2.1-.1-.2-.1-.4-.2-.7c0-.1.1-.3.2-.3s.3.1.3.2v.1c.2.7.7.8,1.1.9-.4-.4-.8-.8-1.1-1.1-.1-.1-.1-.3,0-.4s.3-.1.4,0c0,.1.1.1.1.2c0-.1,0-.1,0-.2l-.1-.2c-.1-.1-.1-.3.1-.4.1-.1.3-.1.4.1v.1c.1,0,.2.1.3.2v0c.4.5.8.7,1.1.9-.2-.1-.4-.3-.5-.7c0,0-.1-.4-.2-.5s0-.3.1-.4.3,0,.4.1c.4.8.8,1.1,1,1.4.1-.2.2-.5.3-.8.1-.1,0-.8,0-.9s.2-.3.3-.2c.1,0,.3.2.2.3c0,.2,0,.5,0,.8.1-.1.1-.2.2-.2.1-.2.2-.2.4-.2.1,0,.2.2.2.3s-.1.2-.2.2c-.6.9-.4.9-.3,1.4.8-1.2.4-2.1,1.5-1.7.1.1.2.1.3.3.1.1,0,.3-.1.4s-.3,0-.3-.1c-.1,0-.1,0-.2,0-.1.3-.2.5-.3.7c0,0,.1,0,.1,0s0,0,0-.1.2-.2.3-.2.2.2.2.3c-.1.1-.1.3-.2.4c0,.2,0,.4-.1.5.3-.1.6-.1.9-.2v0c0-.1.2-.2.3-.2s.2.2.2.3-.1.2-.2.3c0,0,0,.1,0,.1-.1.3-.2.4-.4.6c0,.1,0,.1,0,.2.5,0,.9,0,1,0c0,0,0,0,0-.1s.1-.3.2-.3.3.1.3.2c.1.4-.1.6-.5.7.1.1.1.3,0,.4-.4.4-1,.4-1.6.4.5.3.8.7,1.3.6.1-.1.2-.1.3-.1s.2.2.2.3c-.1.7-.6.4-1.2.1c0,0,0,.1,0,.1-.4,1.4-1.3.2-2-.5c0,.1-.1.2-.2.2s-.3-.1-.3-.2s0-.2,0-.2s0,0,0,0s0,0,0,0c-.1.1-.2.2-.4.1v0c-.1.1-.2.1-.2.1-.1,0-.2-.2-.2-.3.1-.2.2-.4.3-.6c0,0,0,0-.1-.1c0,0,0,0-.1,0c0,0,0,0,0,0s0,0,0,0c0,.2-.1.3-.2.3s-.1,0-.2,0c-.5,1.4-2.6-.5-3.5.3-.1.1-.3.1-.4,0c0,.1,0-.1.1-.2v0Zm7.2,1c-.3-.2-.7-.4-1.1-.4.4.4.5.8.7.9.2-.1.1,0,.2-.2c0-.2.1-.3.2-.3v0Zm-4.2-1.7v0c-.4-1.5-1.2-1.4-1.7-1.7-.1,0,0,0-.1.2.2.3,1.4.2,1.8,1.4c0,.1,0,.1,0,.1v0Zm3,.3c.8,0,1.7.2,2.1-.1-.6.1-1.4,0-2.1.1v0Zm-1-2.9c-.1.2-.1.3-.1.5.1.2.1.4.1.7c0,0,.1,0,.1-.1-.1-.4-.1-.8-.1-1.1v0Zm1-.8c0,0,0-.1,0,0v0v0ZM67,286.4c0-.1,0-.1,0,0-.1,0-.1,0-.1.1.1-.1.1-.1.1-.1v0Zm-1.3-.2c0,0,0,.1,0,.1s0,0,0,0s0-.1,0-.1v0Zm.4-.4c0-.5-.2-.6-.5-.7.2.3.4.5.5.7v0Zm-1.8,1.4c.5.2.8.3,1,.1c0,0,0,0,0-.1-.4,0-.7,0-1,0v0Zm.3-3.4c.2.5.7.7,1.1.8-.3-.2-.7-.5-1.1-.8v0Zm4.8,1.7c-.4,0-.9,0-1.3.4.3,0,.7-.1.9-.1c0-.1.1-.1.1-.2.1,0,.2,0,.3-.1c0,.1,0,0,0,0v0Z" clip-rule="evenodd" fill="#0e3a5e" fill-rule="evenodd"/><g><g id="eZHNALxGjf617_tr" transform="translate(124.996601,277.294678) rotate(0)"><g id="eZHNALxGjf617_ts" transform="scale(1,1)"><path d="M123.1,290.2c0,0,1.5-1.9,1.5-3.1s-1.1-3.1-1.8-4.4-1.2-2.3-1.5-3.3c-.2-.9-.7-2.9-1.3-3.4s-1.3-1.1-2.8-2.3c-1.5-1.1-1.7-1.5-2.1-2.3-.4-.7.4-.5-1.2-1.2-1.6-.8-2.6-1.3-2.1-1.7s1.1-.4,2,.3c1,.7.6,1.2,1.6,1.6.9.4,1.1-.1,2.7,1.7s2.7,3.3,3.3,4.6s1.2,1.1,1.5,3.1c.3,2.1.7,2,1.6,3.7.2.5.4.9.5,1.3c0-1.3-.1-2.8-.1-3.3-.1-1,.2-1,.2-2.7.1-1.7-.1-2.2-.1-3.9-.1-1.8-.5-1-2.1-2.7-1.5-1.7-2.1-1.5-3.2-2.1s-2.1-1.1-2.6-1.5c-.6-.4-.5-1,.3-1.1c1.4-.5,2.8,1.2,3.5,1.9s2.8,1.9,3.7,2.7c.9.7,1.5,1.4,1.3,3-.1,1,0,1.8.1,2.9.4-1.8,1.8-4.4,2.5-6.8.9-2.8.1-2.6.2-3.9c0-.3.1-.6.1-.8-.4-.6-.6-.9-.6-.9.1-.2.4-.3.7-.2c0-.2,0-.3.1-.5.1-.8.2-.5.4-.6.4,0,.4.3.7,1.3c0,.1.1.3.1.5c1.3.9,2.9,2.4,3.8,3.4c0,0,.1-.1.1-.1.7-.7,1-.9,1.4-.8.3.1-.2.6-1,1.4.2.2.3.3.3.4.2.4,1,1.6,1.1,3.6.2-.1.5-.3.8-.5c1.8-1.2.7-1.6,1-2.6.2-1,.4-1.5.4-1.1.8,2.1-.7,4.2-2.2,6-.2,2.1-1,3.7-1.9,5.1-1,1.6-3.1,4-4.3,4.5-1.1.5-3.5,4.2-3.9,4.6-.4.5-2.2.2-2.2.2l.2-.2c-.3.2-.7.3-.7.2v0Zm4.3-3.8c0-.1-.1-.1-.1-.2.2-1.3.7-3,1.4-3.9c1.4-1.7,3.7-2.3,5.3-4.2.2-.2.3-.4.5-.6-.3.9-.8,2-1.8,3.1-1.1,1.2-3.3,3.6-5.3,5.8v0Zm2.4-9.8c.1-.1.1-.2.2-.3.4-.6.9-1.1,1.9-2.4c1.1-1.2,1.2-1.5,1.5-2.2.3-.6-.2-.2.7-1.1c1,1.4,1.4,3,1.1,4c0,.1,0,.1,0,.2-.4.3-.8.8-1.9,1.7-2.1,1.9-2,2.3-4.4,4.4-.1.1-.2.2-.4.4.2-.4.4-.7.6-1c.4-.8.5-2.2.7-3.7v0Zm3.9-6.4c-.1.3-.2.5-.6.8-.7.6-.8.3-1.9,2-.5.8-.9,1.5-1.3,2.1c0-.2.1-.3.1-.5.4-2,.8-1.6,1.2-2.5.3-.8.5-1,.7-1.5s0-.4,0-.5c-.2-.1-.4.1-.9.6s-1.4,3.2-1.4,3.2-.5,1.5-.7,2.2c-.2.5-.4,1.6-.6,2.2-.2.3-.4.7-.5,1.5-.1.4-.1.7-.2,1-.1.2-.1.4-.2.6s-.2.5-.4.7c.2-1.3.6-4,.9-4.6.3-.7.9-2.7,1.1-3.7s.7-3.1.7-3.1.3-1.4.4-2.8c1.1.7,2.6,1.2,3.6,2.3v0Z" transform="translate(-124.996601,-277.294678)" clip-rule="evenodd" fill="#0e3a5e" fill-rule="evenodd"/></g></g><path d="M156.8,289.5c0,0,3.1-.6,6.5-.3s3.7.7,6.1.3c2.4-.5,3.1-1,3-1.3-.1-.4.4-.9.5-1.4s.3-1.5.3-1.9c0-.3.9-.8.1-1.5s-2.6-1.1-2.6-1.1.2-.6,0-.7c-.1-.1-1.5-.4-2.1-.5-.7-.1-1.1-.1-1.7-.1s-2.3.1-2.9.1-.8-.4-1.5-.6c-.7-.1-1.6-.2-2.7-.2s-1.5.2-1.8.2c-.4,0-3.2-.3-3.5-.3s.7-.1-.4-.6-1-1-2.1-1.2-3.7.3-4.7.2-1.1-.6-3-.2-2.8,1-2.9,1.1-1.3.4-2.5,1.1-1.2,1.3-2.6,1.6c-1.5.2-2.1.2-2.7.5s-1.1.8-1.3,1.1c-.1.4-.6.8-1,.8s-.7-.2-1.5.3-2,.7-2.3,1.1-.7,1-.4,1.2c.2.2,1.1.4,1.4.5.3,0,3,.2,4.8.3s5.6-.3,7.8.1s7.3.4,8.7.6c1.5.5,7,.8,7,.8v0Z" clip-rule="evenodd" fill="#0e3a5e" fill-rule="evenodd"/><path d="M174,280.1c0,0,1.2-2,1.2-2.9s1.2-2.9,1.9-3.8c.8-.9,1.4-1.9,1.4-3.1s.1-2.9.2-3.9.4-2.8,0-3.2-.4-.9-1.5-.6c-1.1.2-4.1,1.1-5.1.9s-3-.4-3.7.3c-.7.6-.5,2.2-2,3.1s-2.2.8-3.1,1.8c-.9,1.1-1.1,1.8-1.5,2.3-.5.5-1.5-.4-1.8,1.2s-.6,3.2-.6,3.7-.1,1.9-1.4,2.5c-1.2.6-2.1.4-2.2,1.3-.2.9-1.1,3.9-1.1,3.9l-.2,2.2c0,0,9.8-.5,10.3-.4.4.2,7.5.5,8.1.5s4.9.9,5.9,0s4.2-2.8,4.1-3.3.4-1.1-.8-1.1-2.7-.1-3.2,0-2.9.6-3.1.1c-.4-.5-1.8-1.5-1.8-1.5v0Z" clip-rule="evenodd" fill="#0e3a5e" fill-rule="evenodd"/></g></g></g><g id="eZHNALxGjf620_to" transform="translate(389.995243,271.434601)"><g id="eZHNALxGjf620_ts" transform="scale(1,1)"><path d="M822.086918,198.683973c-.220991-9.440462-3.977842-16.82865-8.397667-16.144559L544.300945,221.532628L394.137406,249.306743L324.74616,261.894026c-20.883671,3.830912-41.988333,2.462729-62.872004-3.967731l-19.999706-6.156823c-35.579588-10.945464-71.490662-14.50274-107.180746-10.398191L0.994012,256.284476l-92.263838,4.651822c-7.29271.410455-10.055101,20.385926-3.977842,29.68957v0c1.325947,2.052274,2.872886,3.146821,4.419825,3.146821l907.500476,40.224579c4.309329.136818,7.845188-7.388188,7.624197-16.691832l-2.209912-118.621463Z" transform="translate(-389.995243,-271.434601)" opacity="0.14" clip-rule="evenodd" filter="url(#eZHNALxGjf620-filter)" fill="#0e3a5e" fill-rule="evenodd"/></g></g><g id="eZHNALxGjf621_to" transform="translate(399.043873,283.958237)"><g id="eZHNALxGjf621_ts" transform="scale(-1,1)"><path d="M825.678331,188.1c-.302176-11.3-3.827561-20.3-7.856572-19.6L572.555687,211.7L435.871473,243l-18.835628.7c-26.893651,1-53.585852,4.8-79.975877,10.2-6.547144,1.4-13.396463,1.3-21.756662-2.3l-18.332002-7.7c-32.534268-13.7-65.269986-18.4-97.804253-14L77.59163,246.2l-84.105614,4.4c-6.647869.3-8.96455,24.4-3.323934,35.7v0c1.208703,2.4,2.618857,3.8,4.029011,3.9L822.152946,351c3.928287.3,7.05077-8.7,6.748595-19.9l-3.22321-143Z" transform="translate(-389.979658,-259.734512)" opacity="0.07" clip-rule="evenodd" fill="#0e3a5e" fill-rule="evenodd"/></g></g></g><path d="M700.5,287.1c1.4-.3,3-.6,3-.6-.2-.1-.4-.8-.4-.8l-.1-.3c0,0-.3-.2-.6,0s-.3.3-.8.6c-.5.2-1.3.5-1.5.5s-.7.1-.7.1l-1,.6h-50.2c-1.5-1.9-3.7-4.6-5.3-5.2-2-.7-7.9,4.5-13.7,5.2h-2.5c-.7-.1-1.3-.3-1.9-.5v0c0-.1,0-.3,0-.3-.1-.1-.7-.4-1-.5s-.5-.1-.8-.1c-.1,0-.3,0-.5,0-.5-.1-1-.3-1.4-.4-.1-.1-.1-.1-.2-.2-.3-.1-.8-.2-1.3-.2-.2,0-.3,0-.4,0-.7-.1-1.5-.2-2.2-.2.1-.1.1-.2-.2-.5-.5-.5-.5-1-1-1.2s-1.8.3-2.3.2-.5-.6-1.5-.2c-.9.4-1.4,1-1.4,1.1-.1.1-.5.3-1,.8-1.7.2-3.4.4-5.3.6-2.7.3-8.4.8-14.7,1.4h-45.4c-6.1-1.2-12-2.2-14.9-2.2-6.7,0-19.4.4-24.4.8-1.8.1-8.6.8-16.9,1.4h-43.6c-6.8-1.7-15.8-1.2-30.4-3.1-10-1.3-14.9-1-17.7-.5-.1,0-.2,0-.2,0-.3,0-1.1.1-1.4.1s-.4-.4-.7-.6c-.3-.1-.8-.2-1.3-.2s-.7.2-.9.2-1.6-.3-1.7-.3c-.2,0,.3-.1-.2-.6s-.5-1-1-1.2-1.8.3-2.3.2-.5-.6-1.5-.2c-.9.4-1.4,1-1.4,1.1-.1.1-.6.4-1.2,1.1s-.6,1.3-1.3,1.6c-.3.1-.5.1-.7.2-5.9.2-13,.4-19.4.6-13,.4-16.8-.8-29.9-1.7-13-.8-26.5-3.4-40.8,1.3-2.4.8-4.5,1.4-6.3,1.8h-39c-1.1-.2-2.1-.3-3.1-.5-7.2-1.7-9.7-1.3-16.8-2.1-7.2-.8-10.5,0-16.4,0s-14.3,1.3-24,0-12.2-.8-23.2-.8c-7.8,0-14.5,1.9-21.3,3.5h-20.1c-2.7-.8-6.6-1.8-13.3-2.6C88,281.8,82.5,285.6,72,286s-13.9-.4-22.7-1.7-11.4-.8-20.6-.4c-9.3.4-18.5,1.7-28.2-.4-5.8-1.3-13,1.3-17.8,3.5h-15.6v23.1v15.1v240.5h834.9v-240.4-15.1-23.1h-101.5Z" fill="#0e3a5e" fill-rule="evenodd"/><g id="eZHNALxGjf623_to" transform="translate(589.399954,153.200005)"><g id="eZHNALxGjf623" transform="translate(-373.199951,-153.200005)" opacity="0"><path d="M463.8,124.6c-.2-.1-.5-.1-.5-.1s-1.4-1-1.6-1.1-.8-.1-.8-.1-1.3-.4-1.5-.5s0-.1,0-.3c0-.1-.1-.3-.3-.4s-.6-.2-.8-.1c-.2,0-.6.1-.8,0s-.9,0-1.3-.1-1-.3-1-.3h-1c0,0-3.9.1-4.9.1s-5.1.1-7.4.2c-2.2.1-6.6.9-7.5,1.1s-4.5.9-5.1.9-4.4,0-4.9-.1-6.4.4-7.3.5-1.2.3-1.6.4c-.3.1-1.1.3-1.5.4s-.3.4-.4.7.4.7.4.7-.3,0-.6.1-.8.7-.8.7l.1,2.1.2.7-.8.9c0,0-1.3.2-1.5.2s-2.2.2-2.5.2-1.5.3-1.7.4-.2.3-.2.5.2.4.3.5s2.2.1,2.2.1-4.9,2.7-5.8,3.2c-1,.5-4.2,2.5-6,3.3-1.8.9-3.7,3.1-4.1,3.5s-2.6,3.2-3.2,3.7c-.5.5-1.9,1.1-2.1,1.2s-.5.9-.5.9l-6.5,4.4c.1,0,.1,0,.3.1L369,166c0,0,10,0,14.1.2s10.9-8.2,10.9-8.2c.2-.1,6.4-7.5,6.5-7.5l3.3-4.5c0,0,.3-.5.7-.8.3-.3,2.3-2.1,2.7-2.5.5-.4,3.3-2.8,4.1-3.4.8-.5,2.2-1.3,2.2-1.3l.4-.3c0,0,.2.1.4-.1.2-.1,0,0,0-.1s.1-.1.2-.1.1,0,.3-.2s0-.1,0-.2.1-.1.2-.1s0-.1,0-.1.2-.1.4-.1s1.9-.8,2.4-.9c.5-.2,2.7-1.3,2.7-1.3s0,0,.1.1.3,0,.3,0s2.2-1.1,2.7-1.3c.6-.2,4-1.2,4-1.2h.3c0,0,6.2.6,8.8.3s9.2-1,12.7-1.7s9.8-2.8,9.8-2.8s2.3-.8,2.4-.9.4-.5.7-.6.6-.1,1.1-.1c.4,0,.6-.3.7-.5.2-.4-.1-1.1-.3-1.2Z" fill="#fff"/><g><path d="M366.3,159.1c4.7-3.9,7.9-9.2,12.3-13.1l.1-.2.9-2.1.7-2.4.2-3-1.2-2.7-1.4-.9-3.2-1.3-4.4-1.7-3.8-1.7-4.8-1.9-7.2-3.2-1.4-.6-.1-1.5-1.2-.5-1.3.5-2.1-.8-1.2-.5-.5-1-2.5-1.2-2.6-1-1.1-.1-.5.4-3.9-1.7-4-1.5-3-1.1-2.6.2-2.6.5-1.5.9-1.5,1-1.1.7-3.1.2-5,.8-3.4,1.2-2.7,1.4-2,1.2-1.5-1.2-2-2.5-2.4-1.4-3.1-.3h-2.5l-2.5.5-2,.5-2.1.8-1.7,1-1.5,1.5-1.1,1.6.5,1.3.7.4-.3,1.2-1.3,1.3-.1,1.5-.3.9h-1.1l-.5,1-.8.3v.9l1,1.5.8,1.2-.2,1.6-.6,2l.5.8l1.7.1l1.3.5.6.5-1.6,1l.1,1-.5,1.4-.6.7-1.1.1-1.8.8-1.1,1.3-1,.6.1.7l1.1,1.1l3.1,3.1l1.5-.3.9.2l1,.2.7-.3.3-.7l1.6.3l2.4.6l4.4.3l2.1-.2l2.6-.3l1.3-.5.5.8.1,2.4-.2,2.4.3,1.6.5,2.2l1.1,2l1.1,1.9l1.9,2.4l1.7,1.5l1.7,1.2.3,1.1-.9.9-.8,1.4.3,1.3l1,1l.6.3.2.9l1.3,1.1l1.5.9l1.2-1l1.4-.6h.8c0,0,7.6-.4,9.9-3.4.5-.7.7-3,2.1-3.9c2.2-1.5,6.7,1.6,9.7,1.1c3.4-.5,5.5-.5,7.6-1.2c1.3-.4,3.3,0,4.7.4c1.2.3,2.4.3,3.5-.2c3.8-1.4,7.8-2.3,11.8-2.6l1-.1c.3-2.7-.6-5.7,1.8-7.7Zm-68.1-9.8l-.4.7-1.5.3-1.3.2-2.1.2h-1.7-1.7l-1.4-.3-1-.4-.6-.5c0-.3,0-.6-.1-.9l.7-1.2.9-.7l1.8-.2h2.5l1.8-.1l1.8-.1l1.5.7.8,1v1.3Zm7.3,17.1c-.5-.6-1.9-2.3-1.9-2.3l-1-1.3-.7-1.3-.5-1.1-.5-1.5v-1.9l.2.1.2,1.2.6,1.4.6,1.3.8,1.4.7,1.1l1.7,2.4c.1.2.2,1.1-.2.5Z" clip-rule="evenodd" fill="#0e3a5e" fill-rule="evenodd"/><path d="M296,146.5l-1.8.1-1.8.1h-2.4l-1.8.2v0l-1,.7-.7,1.2v.1c0,.3,0,.5.1.8v0l.6.5l1,.4l1.4.3l3.4-.1l2.1-.2l1.3-.2l1.5-.3.4-.7v-1v0l-.8-1-1.5-.9Zm2.2,2.8l-.3.6-1.5.3-1.3.2-2.1.2-3.4.1-1.4-.3-1-.4-.5-.4c0-.3,0-.5-.1-.8v-.1l.7-1.1.9-.7l1.8-.2h2.4l1.8-.1l1.8-.1l1.4.7.8.9v1.2Z" fill="#0e3a5e"/></g><path d="M469.9,188.6l-1.1-1.1-2.9-.7-2.1-.1-2.2-.4-1.8-.5-3.5-2.3-3-1.9-4.4-3.4-1.8-1.7-2.6-3-1.7-2.7-2.1-2.4-1.4-2.4-2-1.9-1-.9-1.6-2.3-1.6-1.4-1.6-1.1-1.1.2-.7.4-1.6.6-.6.8-.3,1-1.9,1-2.8-.3-2.2-.6-1.1-.4-5.5-3.2c0,0-3.9-2.3-9.1-2.7-2.7-.2-5.9-.4-8.4-.5c0,.1-.1.1-.1.2v-.1l-24.5-2.7c-1.6-.2-3.2.3-4.4,1.3l-4.3,3.4c-2.2,1.8-2.9,4.8-1.6,7.4v0c1.1,2.2,3.4,3.5,5.9,3.3L382,167c.7,0,1.4,0,2,0l3.1.1l3.1.4l3.6.7l2.8.8c.6.2,1.3.3,2,.2v0c.4,0,.8-.1,1.2-.1l1.4-.3l2.9-.6l2.2-.4l3.8.9l3-.1l2-.4l2,.3l2-.1l2.2.3.5.6.6.9h1.1l1-.4l1.7.5l2.9.9l4.3,1.3l2.8,1.3l1,1l1,1.3l1.8,2.1l1.8,1.9l2.9,1.9l1.8,1.3l2.9,1.8l3.5,1.4l3.2.9l2.6,1.1l2.3.9l3.8,1.2l2.7.8l2.4.7.9-1l.1-1.6-1-.9Z" fill="#0e3a5e"/></g></g><g id="eZHNALxGjf629" transform="translate(-1.064955 0)" opacity="0"><path d="M463.8,124.6c-.2-.1-.5-.1-.5-.1s-1.4-1-1.6-1.1-.8-.1-.8-.1-1.3-.4-1.5-.5s0-.1,0-.3c0-.1-.1-.3-.3-.4s-.6-.2-.8-.1c-.2,0-.6.1-.8,0s-.9,0-1.3-.1-1-.3-1-.3h-1c0,0-3.9.1-4.9.1s-5.1.1-7.4.2c-2.2.1-6.6.9-7.5,1.1s-4.5.9-5.1.9-4.4,0-4.9-.1-6.4.4-7.3.5-1.2.3-1.6.4c-.3.1-1.1.3-1.5.4s-.3.4-.4.7.4.7.4.7-.3,0-.6.1-.8.7-.8.7l.1,2.1.2.7-.8.9c0,0-1.3.2-1.5.2s-2.2.2-2.5.2-1.5.3-1.7.4-.2.3-.2.5.2.4.3.5s2.2.1,2.2.1-4.9,2.7-5.8,3.2c-1,.5-4.2,2.5-6,3.3-1.8.9-3.7,3.1-4.1,3.5s-2.6,3.2-3.2,3.7c-.5.5-1.9,1.1-2.1,1.2s-.5.9-.5.9l-6.5,4.4c.1,0,.1,0,.3.1L369,166c0,0,10,0,14.1.2s10.9-8.2,10.9-8.2c.2-.1,6.4-7.5,6.5-7.5l3.3-4.5c0,0,.3-.5.7-.8.3-.3,2.3-2.1,2.7-2.5.5-.4,3.3-2.8,4.1-3.4.8-.5,2.2-1.3,2.2-1.3l.4-.3c0,0,.2.1.4-.1.2-.1,0,0,0-.1s.1-.1.2-.1.1,0,.3-.2s0-.1,0-.2.1-.1.2-.1s0-.1,0-.1.2-.1.4-.1s1.9-.8,2.4-.9c.5-.2,2.7-1.3,2.7-1.3s0,0,.1.1.3,0,.3,0s2.2-1.1,2.7-1.3c.6-.2,4-1.2,4-1.2h.3c0,0,6.2.6,8.8.3s9.2-1,12.7-1.7s9.8-2.8,9.8-2.8s2.3-.8,2.4-.9.4-.5.7-.6.6-.1,1.1-.1c.4,0,.6-.3.7-.5.2-.4-.1-1.1-.3-1.2Z" fill="#fff"/><g><path d="M366.3,159.1c4.7-3.9,7.9-9.2,12.3-13.1l.1-.2.9-2.1.7-2.4.2-3-1.2-2.7-1.4-.9-3.2-1.3-4.4-1.7-3.8-1.7-4.8-1.9-7.2-3.2-1.4-.6-.1-1.5-1.2-.5-1.3.5-2.1-.8-1.2-.5-.5-1-2.5-1.2-2.6-1-1.1-.1-.5.4-3.9-1.7-4-1.5-3-1.1-2.6.2-2.6.5-1.5.9-1.5,1-1.1.7-3.1.2-5,.8-3.4,1.2-2.7,1.4-2,1.2-1.5-1.2-2-2.5-2.4-1.4-3.1-.3h-2.5l-2.5.5-2,.5-2.1.8-1.7,1-1.5,1.5-1.1,1.6.5,1.3.7.4-.3,1.2-1.3,1.3-.1,1.5-.3.9h-1.1l-.5,1-.8.3v.9l1,1.5.8,1.2-.2,1.6-.6,2l.5.8l1.7.1l1.3.5.6.5-1.6,1l.1,1-.5,1.4-.6.7-1.1.1-1.8.8-1.1,1.3-1,.6.1.7l1.1,1.1l3.1,3.1l1.5-.3.9.2l1,.2.7-.3.3-.7l1.6.3l2.4.6l4.4.3l2.1-.2l2.6-.3l1.3-.5.5.8.1,2.4-.2,2.4.3,1.6.5,2.2l1.1,2l1.1,1.9l1.9,2.4l1.7,1.5l1.7,1.2.3,1.1-.9.9-.8,1.4.3,1.3l1,1l.6.3.2.9l1.3,1.1l1.5.9l1.2-1l1.4-.6h.8c0,0,7.6-.4,9.9-3.4.5-.7.7-3,2.1-3.9c2.2-1.5,6.7,1.6,9.7,1.1c3.4-.5,5.5-.5,7.6-1.2c1.3-.4,3.3,0,4.7.4c1.2.3,2.4.3,3.5-.2c3.8-1.4,7.8-2.3,11.8-2.6l1-.1c.3-2.7-.6-5.7,1.8-7.7Zm-68.1-9.8l-.4.7-1.5.3-1.3.2-2.1.2h-1.7-1.7l-1.4-.3-1-.4-.6-.5c0-.3,0-.6-.1-.9l.7-1.2.9-.7l1.8-.2h2.5l1.8-.1l1.8-.1l1.5.7.8,1v1.3Zm7.3,17.1c-.5-.6-1.9-2.3-1.9-2.3l-1-1.3-.7-1.3-.5-1.1-.5-1.5v-1.9l.2.1.2,1.2.6,1.4.6,1.3.8,1.4.7,1.1l1.7,2.4c.1.2.2,1.1-.2.5Z" clip-rule="evenodd" fill="#0e3a5e" fill-rule="evenodd"/><path d="M296,146.5l-1.8.1-1.8.1h-2.4l-1.8.2v0l-1,.7-.7,1.2v.1c0,.3,0,.5.1.8v0l.6.5l1,.4l1.4.3l3.4-.1l2.1-.2l1.3-.2l1.5-.3.4-.7v-1v0l-.8-1-1.5-.9Zm2.2,2.8l-.3.6-1.5.3-1.3.2-2.1.2-3.4.1-1.4-.3-1-.4-.5-.4c0-.3,0-.5-.1-.8v-.1l.7-1.1.9-.7l1.8-.2h2.4l1.8-.1l1.8-.1l1.4.7.8.9v1.2Z" fill="#0e3a5e"/></g><path d="M469.9,188.6l-1.1-1.1-2.9-.7-2.1-.1-2.2-.4-1.8-.5-3.5-2.3-3-1.9-4.4-3.4-1.8-1.7-2.6-3-1.7-2.7-2.1-2.4-1.4-2.4-2-1.9-1-.9-1.6-2.3-1.6-1.4-1.6-1.1-1.1.2-.7.4-1.6.6-.6.8-.3,1-1.9,1-2.8-.3-2.2-.6-1.1-.4-5.5-3.2c0,0-3.9-2.3-9.1-2.7-2.7-.2-5.9-.4-8.4-.5c0,.1-.1.1-.1.2v-.1l-24.5-2.7c-1.6-.2-3.2.3-4.4,1.3l-4.3,3.4c-2.2,1.8-2.9,4.8-1.6,7.4v0c1.1,2.2,3.4,3.5,5.9,3.3L382,167c.7,0,1.4,0,2,0l3.1.1l3.1.4l3.6.7l2.8.8c.6.2,1.3.3,2,.2v0c.4,0,.8-.1,1.2-.1l1.4-.3l2.9-.6l2.2-.4l3.8.9l3-.1l2-.4l2,.3l2-.1l2.2.3.5.6.6.9h1.1l1-.4l1.7.5l2.9.9l4.3,1.3l2.8,1.3l1,1l1,1.3l1.8,2.1l1.8,1.9l2.9,1.9l1.8,1.3l2.9,1.8l3.5,1.4l3.2.9l2.6,1.1l2.3.9l3.8,1.2l2.7.8l2.4.7.9-1l.1-1.6-1-.9Z" fill="#0e3a5e"/></g><g id="eZHNALxGjf635" transform="translate(-236.3 0)" opacity="0"><path d="M463.8,124.6c-.2-.1-.5-.1-.5-.1s-1.4-1-1.6-1.1-.8-.1-.8-.1-1.3-.4-1.5-.5s0-.1,0-.3c0-.1-.1-.3-.3-.4s-.6-.2-.8-.1c-.2,0-.6.1-.8,0s-.9,0-1.3-.1-1-.3-1-.3h-1c0,0-3.9.1-4.9.1s-5.1.1-7.4.2c-2.2.1-6.6.9-7.5,1.1s-4.5.9-5.1.9-4.4,0-4.9-.1-6.4.4-7.3.5-1.2.3-1.6.4c-.3.1-1.1.3-1.5.4s-.3.4-.4.7.4.7.4.7-.3,0-.6.1-.8.7-.8.7l.1,2.1.2.7-.8.9c0,0-1.3.2-1.5.2s-2.2.2-2.5.2-1.5.3-1.7.4-.2.3-.2.5.2.4.3.5s2.2.1,2.2.1-4.9,2.7-5.8,3.2c-1,.5-4.2,2.5-6,3.3-1.8.9-3.7,3.1-4.1,3.5s-2.6,3.2-3.2,3.7c-.5.5-1.9,1.1-2.1,1.2s-.5.9-.5.9l-6.5,4.4c.1,0,.1,0,.3.1L369,166c0,0,10,0,14.1.2s10.9-8.2,10.9-8.2c.2-.1,6.4-7.5,6.5-7.5l3.3-4.5c0,0,.3-.5.7-.8.3-.3,2.3-2.1,2.7-2.5.5-.4,3.3-2.8,4.1-3.4.8-.5,2.2-1.3,2.2-1.3l.4-.3c0,0,.2.1.4-.1.2-.1,0,0,0-.1s.1-.1.2-.1.1,0,.3-.2s0-.1,0-.2.1-.1.2-.1s0-.1,0-.1.2-.1.4-.1s1.9-.8,2.4-.9c.5-.2,2.7-1.3,2.7-1.3s0,0,.1.1.3,0,.3,0s2.2-1.1,2.7-1.3c.6-.2,4-1.2,4-1.2h.3c0,0,6.2.6,8.8.3s9.2-1,12.7-1.7s9.8-2.8,9.8-2.8s2.3-.8,2.4-.9.4-.5.7-.6.6-.1,1.1-.1c.4,0,.6-.3.7-.5.2-.4-.1-1.1-.3-1.2Z" fill="#fff"/><g><path d="M366.3,159.1c4.7-3.9,7.9-9.2,12.3-13.1l.1-.2.9-2.1.7-2.4.2-3-1.2-2.7-1.4-.9-3.2-1.3-4.4-1.7-3.8-1.7-4.8-1.9-7.2-3.2-1.4-.6-.1-1.5-1.2-.5-1.3.5-2.1-.8-1.2-.5-.5-1-2.5-1.2-2.6-1-1.1-.1-.5.4-3.9-1.7-4-1.5-3-1.1-2.6.2-2.6.5-1.5.9-1.5,1-1.1.7-3.1.2-5,.8-3.4,1.2-2.7,1.4-2,1.2-1.5-1.2-2-2.5-2.4-1.4-3.1-.3h-2.5l-2.5.5-2,.5-2.1.8-1.7,1-1.5,1.5-1.1,1.6.5,1.3.7.4-.3,1.2-1.3,1.3-.1,1.5-.3.9h-1.1l-.5,1-.8.3v.9l1,1.5.8,1.2-.2,1.6-.6,2l.5.8l1.7.1l1.3.5.6.5-1.6,1l.1,1-.5,1.4-.6.7-1.1.1-1.8.8-1.1,1.3-1,.6.1.7l1.1,1.1l3.1,3.1l1.5-.3.9.2l1,.2.7-.3.3-.7l1.6.3l2.4.6l4.4.3l2.1-.2l2.6-.3l1.3-.5.5.8.1,2.4-.2,2.4.3,1.6.5,2.2l1.1,2l1.1,1.9l1.9,2.4l1.7,1.5l1.7,1.2.3,1.1-.9.9-.8,1.4.3,1.3l1,1l.6.3.2.9l1.3,1.1l1.5.9l1.2-1l1.4-.6h.8c0,0,7.6-.4,9.9-3.4.5-.7.7-3,2.1-3.9c2.2-1.5,6.7,1.6,9.7,1.1c3.4-.5,5.5-.5,7.6-1.2c1.3-.4,3.3,0,4.7.4c1.2.3,2.4.3,3.5-.2c3.8-1.4,7.8-2.3,11.8-2.6l1-.1c.3-2.7-.6-5.7,1.8-7.7Zm-68.1-9.8l-.4.7-1.5.3-1.3.2-2.1.2h-1.7-1.7l-1.4-.3-1-.4-.6-.5c0-.3,0-.6-.1-.9l.7-1.2.9-.7l1.8-.2h2.5l1.8-.1l1.8-.1l1.5.7.8,1v1.3Zm7.3,17.1c-.5-.6-1.9-2.3-1.9-2.3l-1-1.3-.7-1.3-.5-1.1-.5-1.5v-1.9l.2.1.2,1.2.6,1.4.6,1.3.8,1.4.7,1.1l1.7,2.4c.1.2.2,1.1-.2.5Z" clip-rule="evenodd" fill="#0e3a5e" fill-rule="evenodd"/><path d="M296,146.5l-1.8.1-1.8.1h-2.4l-1.8.2v0l-1,.7-.7,1.2v.1c0,.3,0,.5.1.8v0l.6.5l1,.4l1.4.3l3.4-.1l2.1-.2l1.3-.2l1.5-.3.4-.7v-1v0l-.8-1-1.5-.9Zm2.2,2.8l-.3.6-1.5.3-1.3.2-2.1.2-3.4.1-1.4-.3-1-.4-.5-.4c0-.3,0-.5-.1-.8v-.1l.7-1.1.9-.7l1.8-.2h2.4l1.8-.1l1.8-.1l1.4.7.8.9v1.2Z" fill="#0e3a5e"/></g><path d="M469.9,188.6l-1.1-1.1-2.9-.7-2.1-.1-2.2-.4-1.8-.5-3.5-2.3-3-1.9-4.4-3.4-1.8-1.7-2.6-3-1.7-2.7-2.1-2.4-1.4-2.4-2-1.9-1-.9-1.6-2.3-1.6-1.4-1.6-1.1-1.1.2-.7.4-1.6.6-.6.8-.3,1-1.9,1-2.8-.3-2.2-.6-1.1-.4-5.5-3.2c0,0-3.9-2.3-9.1-2.7-2.7-.2-5.9-.4-8.4-.5c0,.1-.1.1-.1.2v-.1l-24.5-2.7c-1.6-.2-3.2.3-4.4,1.3l-4.3,3.4c-2.2,1.8-2.9,4.8-1.6,7.4v0c1.1,2.2,3.4,3.5,5.9,3.3L382,167c.7,0,1.4,0,2,0l3.1.1l3.1.4l3.6.7l2.8.8c.6.2,1.3.3,2,.2v0c.4,0,.8-.1,1.2-.1l1.4-.3l2.9-.6l2.2-.4l3.8.9l3-.1l2-.4l2,.3l2-.1l2.2.3.5.6.6.9h1.1l1-.4l1.7.5l2.9.9l4.3,1.3l2.8,1.3l1,1l1,1.3l1.8,2.1l1.8,1.9l2.9,1.9l1.8,1.3l2.9,1.8l3.5,1.4l3.2.9l2.6,1.1l2.3.9l3.8,1.2l2.7.8l2.4.7.9-1l.1-1.6-1-.9Z" fill="#0e3a5e"/></g><g id="eZHNALxGjf641_to" transform="translate(828.299927,153.200005)"><g transform="translate(-373.199951,-153.200005)"><g><g id="eZHNALxGjf643_tr" transform="translate(380.5,159.871176) rotate(33.414893)"><path d="M463.8,124.6c-.2-.1-.5-.1-.5-.1s-1.4-1-1.6-1.1-.8-.1-.8-.1-1.3-.4-1.5-.5s0-.1,0-.3c0-.1-.1-.3-.3-.4s-.6-.2-.8-.1c-.2,0-.6.1-.8,0s-.9,0-1.3-.1-1-.3-1-.3h-1c0,0-3.9.1-4.9.1s-5.1.1-7.4.2c-2.2.1-6.6.9-7.5,1.1s-4.5.9-5.1.9-4.4,0-4.9-.1-6.4.4-7.3.5-1.2.3-1.6.4c-.3.1-1.1.3-1.5.4s-.3.4-.4.7.4.7.4.7-.3,0-.6.1-.8.7-.8.7l.1,2.1.2.7-.8.9c0,0-1.3.2-1.5.2s-2.2.2-2.5.2-1.5.3-1.7.4-.2.3-.2.5.2.4.3.5s2.2.1,2.2.1-4.9,2.7-5.8,3.2c-1,.5-4.2,2.5-6,3.3-1.8.9-3.7,3.1-4.1,3.5s-2.6,3.2-3.2,3.7c-.5.5-1.9,1.1-2.1,1.2s-.5.9-.5.9l-6.5,4.4c.1,0,.1,0,.3.1L369,166c0,0,10,0,14.1.2s10.9-8.2,10.9-8.2c.2-.1,6.4-7.5,6.5-7.5l3.3-4.5c0,0,.3-.5.7-.8.3-.3,2.3-2.1,2.7-2.5.5-.4,3.3-2.8,4.1-3.4.8-.5,2.2-1.3,2.2-1.3l.4-.3c0,0,.2.1.4-.1.2-.1,0,0,0-.1s.1-.1.2-.1.1,0,.3-.2s0-.1,0-.2.1-.1.2-.1s0-.1,0-.1.2-.1.4-.1s1.9-.8,2.4-.9c.5-.2,2.7-1.3,2.7-1.3s0,0,.1.1.3,0,.3,0s2.2-1.1,2.7-1.3c.6-.2,4-1.2,4-1.2h.3c0,0,6.2.6,8.8.3s9.2-1,12.7-1.7s9.8-2.8,9.8-2.8s2.3-.8,2.4-.9.4-.5.7-.6.6-.1,1.1-.1c.4,0,.6-.3.7-.5.2-.4-.1-1.1-.3-1.2Z" transform="translate(-380.5,-159.871176)" fill="#fff"/></g><path d="M366.3,159.1c4.7-3.9,7.9-9.2,12.3-13.1l.1-.2.9-2.1.7-2.4.2-3-1.2-2.7-1.4-.9-3.2-1.3-4.4-1.7-3.8-1.7-4.8-1.9-7.2-3.2-1.4-.6-.1-1.5-1.2-.5-1.3.5-2.1-.8-1.2-.5-.5-1-2.5-1.2-2.6-1-1.1-.1-.5.4-3.9-1.7-4-1.5-3-1.1-2.6.2-2.6.5-1.5.9-1.5,1-1.1.7-3.1.2-5,.8-3.4,1.2-2.7,1.4-2,1.2-1.5-1.2-2-2.5-2.4-1.4-3.1-.3h-2.5l-2.5.5-2,.5-2.1.8-1.7,1-1.5,1.5-1.1,1.6.5,1.3.7.4-.3,1.2-1.3,1.3-.1,1.5-.3.9h-1.1l-.5,1-.8.3v.9l1,1.5.8,1.2-.2,1.6-.6,2l.5.8l1.7.1l1.3.5.6.5-1.6,1l.1,1-.5,1.4-.6.7-1.1.1-1.8.8-1.1,1.3-1,.6.1.7l1.1,1.1l3.1,3.1l1.5-.3.9.2l1,.2.7-.3.3-.7l1.6.3l2.4.6l4.4.3l2.1-.2l2.6-.3l1.3-.5.5.8.1,2.4-.2,2.4.3,1.6.5,2.2l1.1,2l1.1,1.9l1.9,2.4l1.7,1.5l1.7,1.2.3,1.1-.9.9-.8,1.4.3,1.3l1,1l.6.3.2.9l1.3,1.1l1.5.9l1.2-1l1.4-.6h.8c0,0,7.6-.4,9.9-3.4.5-.7.7-3,2.1-3.9c2.2-1.5,6.7,1.6,9.7,1.1c3.4-.5,5.5-.5,7.6-1.2c1.3-.4,3.3,0,4.7.4c1.2.3,2.4.3,3.5-.2c3.8-1.4,7.8-2.3,11.8-2.6l1-.1c.3-2.7-.6-5.7,1.8-7.7Zm-68.1-9.8l-.4.7-1.5.3-1.3.2-2.1.2h-1.7-1.7l-1.4-.3-1-.4-.6-.5c0-.3,0-.6-.1-.9l.7-1.2.9-.7l1.8-.2h2.5l1.8-.1l1.8-.1l1.5.7.8,1v1.3Zm7.3,17.1c-.5-.6-1.9-2.3-1.9-2.3l-1-1.3-.7-1.3-.5-1.1-.5-1.5v-1.9l.2.1.2,1.2.6,1.4.6,1.3.8,1.4.7,1.1l1.7,2.4c.1.2.2,1.1-.2.5Z" clip-rule="evenodd" fill="#0e3a5e" fill-rule="evenodd"/><path d="M296,146.5l-1.8.1-1.8.1h-2.4l-1.8.2v0l-1,.7-.7,1.2v.1c0,.3,0,.5.1.8v0l.6.5l1,.4l1.4.3l3.4-.1l2.1-.2l1.3-.2l1.5-.3.4-.7v-1v0l-.8-1-1.5-.9Zm2.2,2.8l-.3.6-1.5.3-1.3.2-2.1.2-3.4.1-1.4-.3-1-.4-.5-.4c0-.3,0-.5-.1-.8v-.1l.7-1.1.9-.7l1.8-.2h2.4l1.8-.1l1.8-.1l1.4.7.8.9v1.2Z" fill="#0e3a5e"/></g><g id="eZHNALxGjf646_tr" transform="translate(368.973924,159.831579) rotate(-23.254654)"><path d="M469.9,188.6l-1.1-1.1-2.9-.7-2.1-.1-2.2-.4-1.8-.5-3.5-2.3-3-1.9-4.4-3.4-1.8-1.7-2.6-3-1.7-2.7-2.1-2.4-1.4-2.4-2-1.9-1-.9-1.6-2.3-1.6-1.4-1.6-1.1-1.1.2-.7.4-1.6.6-.6.8-.3,1-1.9,1-2.8-.3-2.2-.6-1.1-.4-5.5-3.2c0,0-3.9-2.3-9.1-2.7-2.7-.2-5.9-.4-8.4-.5c0,.1-.1.1-.1.2v-.1l-24.5-2.7c-1.6-.2-3.2.3-4.4,1.3l-4.3,3.4c-2.2,1.8-2.9,4.8-1.6,7.4v0c1.1,2.2,3.4,3.5,5.9,3.3L382,167c.7,0,1.4,0,2,0l3.1.1l3.1.4l3.6.7l2.8.8c.6.2,1.3.3,2,.2v0c.4,0,.8-.1,1.2-.1l1.4-.3l2.9-.6l2.2-.4l3.8.9l3-.1l2-.4l2,.3l2-.1l2.2.3.5.6.6.9h1.1l1-.4l1.7.5l2.9.9l4.3,1.3l2.8,1.3l1,1l1,1.3l1.8,2.1l1.8,1.9l2.9,1.9l1.8,1.3l2.9,1.8l3.5,1.4l3.2.9l2.6,1.1l2.3.9l3.8,1.2l2.7.8l2.4.7.9-1l.1-1.6-1-.9Z" transform="translate(-368.973924,-159.831579)" fill="#0e3a5e"/></g></g></g><clipPath id="eZHNALxGjf647"><use width="731.099976" height="362.399994" xlink:href="#eZHNALxGjf62" transform="translate(-.5 1.3)"/></clipPath></g></g></g><g id="eZHNALxGjf649_to" transform="translate(373.049995,48.200001)"><g id="eZHNALxGjf649" transform="translate(-373.049995,-48.200001)" opacity="0.78"><g opacity="0.1"><g><g><circle r="7.8" transform="translate(39.2 23.6)" fill="#fff"/><circle r="8" transform="translate(43.1 66.7)" fill="#fff"/></g><g><circle r="9.8" transform="translate(88.7 23.6)" fill="#fff"/><circle r="8" transform="translate(133.9 21.7)" fill="#fff"/><ellipse rx="9.5" ry="6.5" transform="translate(120.7 61)" fill="#fff"/><circle r="7.8" transform="translate(193 13.8)" fill="#fff"/><circle r="8" transform="translate(196.9 56.9)" fill="#fff"/><circle r="5.5" transform="translate(156.7 47.8)" fill="#fff"/><circle r="9.8" transform="translate(250.9 29.1)" fill="#fff"/><circle r="8" transform="translate(296.1 27.2)" fill="#fff"/><ellipse rx="9.5" ry="6.5" transform="translate(282.9 66.5)" fill="#fff"/><circle r="7.8" transform="translate(355.2 19.3)" fill="#fff"/><circle r="8" transform="translate(359.1 62.4)" fill="#fff"/><circle r="5.5" transform="translate(318.9 53.3)" fill="#fff"/></g></g><g><g><circle r="9.8" transform="translate(388.9 41)" fill="#fff"/><circle r="8" transform="translate(434 39.1)" fill="#fff"/><ellipse rx="9.5" ry="6.5" transform="translate(420.9 78.4)" fill="#fff"/><circle r="7.8" transform="translate(493.2 31.2)" fill="#fff"/><circle r="8" transform="translate(497.1 74.3)" fill="#fff"/><circle r="5.5" transform="translate(456.8 65.2)" fill="#fff"/><circle r="9.8" transform="translate(551.1 46.5)" fill="#fff"/><circle r="8" transform="translate(596.2 44.6)" fill="#fff"/><ellipse rx="9.5" ry="6.5" transform="translate(583.1 83.9)" fill="#fff"/><circle r="7.8" transform="translate(655.4 36.7)" fill="#fff"/><circle r="8" transform="translate(659.3 79.8)" fill="#fff"/><circle r="5.5" transform="translate(619 70.7)" fill="#fff"/></g><g><circle r="9.8" transform="translate(704.9 36.7)" fill="#fff"/></g></g></g><g><g opacity="0.1"><g><g><circle r="3.4" transform="translate(82.3 44.3)" fill="#fff"/><circle r="2.7" transform="translate(73.1 56.7)" fill="#fff"/><ellipse rx="3.3" ry="2.2" transform="matrix(.6274-.7787 0.7787 0.6274 65.449773 44.691335)" fill="#fff"/></g></g></g><g opacity="0.1"><g><g><circle r="3.4" transform="translate(123.9 33)" fill="#fff"/><circle r="2.7" transform="translate(114.7 45.4)" fill="#fff"/><ellipse rx="3.3" ry="2.2" transform="matrix(.6274-.7787 0.7787 0.6274 107.067269 33.476344)" fill="#fff"/></g></g></g></g><g><g opacity="0.1"><g><g><ellipse rx="3.3" ry="3.4" transform="matrix(.9887-.1499 0.1499 0.9887 173.306886 29.500982)" fill="#fff"/><ellipse rx="2.7" ry="2.7" transform="matrix(.9887-.1499 0.1499 0.9887 158.204424 32.406703)" fill="#fff"/><ellipse rx="3.2" ry="2.2" transform="matrix(.9887-.1499 0.1499 0.9887 160.597704 18.40714)" fill="#fff"/></g></g></g><g opacity="0.1"><g><g><ellipse rx="3.3" ry="3.4" transform="matrix(.9887-.1499 0.1499 0.9887 227.293365 36.802392)" fill="#fff"/><ellipse rx="2.7" ry="2.7" transform="matrix(.9887-.1499 0.1499 0.9887 212.205792 39.806983)" fill="#fff"/><ellipse rx="3.2" ry="2.2" transform="matrix(.9887-.1499 0.1499 0.9887 214.599072 25.807521)" fill="#fff"/></g></g></g></g><g opacity="0.1"><g><g><ellipse rx="3.3" ry="3.4" transform="matrix(.9887-.1499 0.1499 0.9887 287.704624 48.104643)" fill="#fff"/><ellipse rx="2.7" ry="2.7" transform="matrix(.9887-.1499 0.1499 0.9887 272.602062 51.010364)" fill="#fff"/><ellipse rx="3.2" ry="2.2" transform="matrix(.9887-.1499 0.1499 0.9887 274.995342 37.010901)" fill="#fff"/></g></g></g><g opacity="0.1"><g><g><ellipse rx="3.3" ry="3.4" transform="matrix(.9887-.1499 0.1499 0.9887 336.692591 33.50332)" fill="#fff"/><ellipse rx="2.7" ry="2.7" transform="matrix(.9887-.1499 0.1499 0.9887 321.605119 36.507911)" fill="#fff"/><ellipse rx="3.2" ry="2.2" transform="matrix(.9887-.1499 0.1499 0.9887 323.998299 22.508449)" fill="#fff"/></g></g></g><g opacity="0.1"><g><g><ellipse rx="3.3" ry="3.4" transform="matrix(.9887-.1499 0.1499 0.9887 396.10267 79.605736)" fill="#fff"/><ellipse rx="2.7" ry="2.7" transform="matrix(.9887-.1499 0.1499 0.9887 381.000108 82.511357)" fill="#fff"/><ellipse rx="3.2" ry="2.2" transform="matrix(.9887-.1499 0.1499 0.9887 383.393388 68.511895)" fill="#fff"/></g></g></g><g opacity="0.1"><g><g><ellipse rx="3.3" ry="3.4" transform="matrix(.9887-.1499 0.1499 0.9887 423.806824 58.015282)" fill="#fff"/><ellipse rx="2.7" ry="2.7" transform="matrix(.9887-.1499 0.1499 0.9887 408.803232 60.906013)" fill="#fff"/><ellipse rx="3.2" ry="2.2" transform="matrix(.9887-.1499 0.1499 0.9887 411.196412 46.906551)" fill="#fff"/></g></g></g><g opacity="0.1"><g><g><ellipse rx="3.3" ry="3.4" transform="matrix(.9887-.1499 0.1499 0.9887 526.70732 56.510721)" fill="#fff"/><ellipse rx="2.7" ry="2.7" transform="matrix(.9887-.1499 0.1499 0.9887 511.604857 59.416341)" fill="#fff"/><ellipse rx="3.2" ry="2.2" transform="matrix(.9887-.1499 0.1499 0.9887 513.998038 45.416979)" fill="#fff"/></g></g></g><g opacity="0.1"><g><g><ellipse rx="3.3" ry="3.4" transform="matrix(.9887-.1499 0.1499 0.9887 647.905548 61.82075)" fill="#fff"/><ellipse rx="2.7" ry="2.7" transform="matrix(.9887-.1499 0.1499 0.9887 632.901956 64.71148)" fill="#fff"/><ellipse rx="3.2" ry="2.2" transform="matrix(.9887-.1499 0.1499 0.9887 635.295236 50.712018)" fill="#fff"/></g></g></g><g opacity="0.1"><g><g><ellipse rx="3.3" ry="3.4" transform="matrix(.9887-.1499 0.1499 0.9887 585.503318 63.219891)" fill="#fff"/><ellipse rx="2.7" ry="2.7" transform="matrix(.9887-.1499 0.1499 0.9887 570.499626 66.110621)" fill="#fff"/><ellipse rx="3.2" ry="2.2" transform="matrix(.9887-.1499 0.1499 0.9887 572.892906 52.111159)" fill="#fff"/></g></g></g></g></g><g id="eZHNALxGjf6152_to" transform="translate(464.661009,27.385545)"><g id="eZHNALxGjf6152" transform="translate(-119.199997,-54.159031)" opacity="0"><g id="eZHNALxGjf6153_to" transform="translate(141.723361,147.709646)"><g id="eZHNALxGjf6153_ts" transform="scale(1,1)"><circle id="eZHNALxGjf6153" r="5.561645" transform="translate(-7.626428,15.452023)" opacity="0" fill="#fff"/></g></g><g id="eZHNALxGjf6154_to" transform="translate(98.4,141.658841)"><g id="eZHNALxGjf6154_ts" transform="scale(1,1)"><circle id="eZHNALxGjf6154" r="4.860462" transform="translate(11.921578,2.941584)" opacity="0" fill="#fff"/></g></g><g id="eZHNALxGjf6155_to" transform="translate(130.29967,183.731187)"><g id="eZHNALxGjf6155_ts" transform="scale(1,1)"><circle id="eZHNALxGjf6155" r="6.155332" transform="translate(-9.874746,-19.220321)" opacity="0.16" fill="#fff"/></g></g><g id="eZHNALxGjf6156_to" transform="translate(81.451927,143.500907)"><g id="eZHNALxGjf6156_ts" transform="scale(1,1)"><circle id="eZHNALxGjf6156" r="7.547305" transform="translate(21.205372,22.590067)" opacity="0.34" fill="#fff"/></g></g><g id="eZHNALxGjf6157_to" transform="translate(96.186942,141.838681)"><g id="eZHNALxGjf6157_ts" transform="scale(1,1)"><circle id="eZHNALxGjf6157" r="6.514876" transform="translate(25.217834,25.713252)" opacity="0.42" fill="#fff"/></g></g></g></g></svg>
